<svg width="45" height="46" viewBox="0 0 45 46" fill="none" xmlns="http://www.w3.org/2000/svg">
<path d="M27.1391 2.75172C27.1391 2.15077 26.8792 1.57443 26.4165 1.1495C25.9538 0.724565 25.3263 0.48584 24.6719 0.48584C24.0176 0.48584 23.3901 0.724565 22.9274 1.1495C22.4647 1.57443 22.2047 2.15077 22.2047 2.75172V10.8771L19.0147 7.94737C18.5494 7.53462 17.9261 7.30623 17.2792 7.3114C16.6324 7.31656 16.0136 7.55486 15.5561 7.97497C15.0987 8.39508 14.8392 8.96339 14.8336 9.5575C14.828 10.1516 15.0766 10.724 15.5261 11.1513L22.9276 17.9489C23.3903 18.3737 24.0177 18.6124 24.6719 18.6124C25.3261 18.6124 25.9536 18.3737 26.4162 17.9489L33.8178 11.1513C34.2672 10.724 34.5159 10.1516 34.5103 9.5575C34.5047 8.96339 34.2452 8.39508 33.7878 7.97497C33.3303 7.55486 32.7115 7.31656 32.0646 7.3114C31.4177 7.30623 30.7945 7.53462 30.3292 7.94737L27.1391 10.8771V2.75172Z" fill="#DDC3AF"/>
<path fill-rule="evenodd" clip-rule="evenodd" d="M0 2.75172C0 2.15077 0.259935 1.57443 0.722623 1.1495C1.18531 0.724565 1.81285 0.48584 2.46719 0.48584L6.16797 0.48584C7.14948 0.48584 8.09079 0.843928 8.78483 1.48133C9.47886 2.11873 9.86876 2.98323 9.86876 3.88465V23.1446H37.336L39.4997 9.22985C39.5441 8.93427 39.6517 8.64964 39.8162 8.39232C39.9807 8.13501 40.1989 7.91007 40.4583 7.73041C40.7177 7.55076 41.0132 7.41993 41.3278 7.34543C41.6424 7.27094 41.97 7.25425 42.2916 7.29633C42.6133 7.3384 42.9227 7.43841 43.2022 7.59061C43.4816 7.7428 43.7256 7.9442 43.9201 8.18322C44.1146 8.42225 44.2557 8.6942 44.3355 8.98346C44.4152 9.27273 44.432 9.57361 44.3847 9.86883L42.0681 24.7579C41.9421 25.5679 41.5023 26.309 40.8293 26.8451C40.1562 27.3812 39.2952 27.6764 38.4043 27.6763H9.86876V32.2081H34.5407C36.1117 32.2089 37.6417 32.6687 38.9092 33.521C40.1768 34.3734 41.1162 35.574 41.5915 36.9492C42.0668 38.3244 42.0533 39.8029 41.553 41.1706C41.0527 42.5383 40.0915 43.7243 38.8085 44.557C37.5255 45.3897 35.9874 45.8259 34.4165 45.8025C32.8457 45.779 31.3238 45.2972 30.071 44.4266C28.8181 43.5561 27.8994 42.342 27.4477 40.9601C26.996 39.5782 27.0348 38.1002 27.5585 36.7399H14.3837C14.8707 38.0074 14.9375 39.3791 14.5757 40.6816C14.214 41.9841 13.4399 43.1588 12.3513 44.0573C11.2628 44.9558 9.90861 45.5377 8.46001 45.7295C7.0114 45.9213 5.5334 45.7144 4.21282 45.1349C2.89224 44.5554 1.78837 43.6293 1.04075 42.4738C0.293129 41.3182 -0.0646839 39.985 0.0125421 38.6428C0.0897681 37.3005 0.598566 36.0093 1.47462 34.9326C2.35068 33.8558 3.55466 33.0418 4.93438 32.5933V5.01759H2.46719C1.81285 5.01759 1.18531 4.77887 0.722623 4.35393C0.259935 3.929 0 3.35266 0 2.75172ZM32.0735 39.0057C32.0735 38.4048 32.3334 37.8284 32.7961 37.4035C33.2588 36.9786 33.8863 36.7399 34.5407 36.7399C35.195 36.7399 35.8225 36.9786 36.2852 37.4035C36.7479 37.8284 37.0079 38.4048 37.0079 39.0057C37.0079 39.6067 36.7479 40.183 36.2852 40.6079C35.8225 41.0329 35.195 41.2716 34.5407 41.2716C33.8863 41.2716 33.2588 41.0329 32.7961 40.6079C32.3334 40.183 32.0735 39.6067 32.0735 39.0057ZM4.93438 39.0057C4.93438 38.4048 5.19432 37.8284 5.657 37.4035C6.11969 36.9786 6.74723 36.7399 7.40157 36.7399C8.05591 36.7399 8.68345 36.9786 9.14614 37.4035C9.60882 37.8284 9.86876 38.4048 9.86876 39.0057C9.86876 39.6067 9.60882 40.183 9.14614 40.6079C8.68345 41.0329 8.05591 41.2716 7.40157 41.2716C6.74723 41.2716 6.11969 41.0329 5.657 40.6079C5.19432 40.183 4.93438 39.6067 4.93438 39.0057Z" fill="#DDC3AF"/>
</svg>
