<svg width="49" height="51" viewBox="0 0 49 51" fill="none" xmlns="http://www.w3.org/2000/svg">
<path d="M29.36 2.50676C29.36 1.84192 29.0788 1.20432 28.5783 0.734212C28.0777 0.264104 27.3988 0 26.6909 0C25.983 0 25.3041 0.264104 24.8036 0.734212C24.303 1.20432 24.0218 1.84192 24.0218 2.50676V11.496L20.5707 8.25475C20.0673 7.79812 19.3931 7.54546 18.6933 7.55117C17.9934 7.55688 17.324 7.82051 16.8291 8.28529C16.3343 8.75006 16.0535 9.37878 16.0475 10.036C16.0414 10.6933 16.3104 11.3265 16.7966 11.7993L24.8039 19.3196C25.3044 19.7895 25.9832 20.0535 26.6909 20.0535C27.3987 20.0535 28.0774 19.7895 28.578 19.3196L36.5852 11.7993C37.0714 11.3265 37.3405 10.6933 37.3344 10.036C37.3283 9.37878 37.0476 8.75006 36.5527 8.28529C36.0579 7.82051 35.3884 7.55688 34.6886 7.55117C33.9888 7.54546 33.3146 7.79812 32.8112 8.25475L29.36 11.496V2.50676Z" fill="#DDC3AF"/>
<path fill-rule="evenodd" clip-rule="evenodd" d="M0 2.50676C0 1.84192 0.281207 1.20432 0.781758 0.734212C1.28231 0.264104 1.9612 0 2.66909 0L6.67273 0C7.73456 0 8.7529 0.396156 9.50373 1.10132C10.2546 1.80648 10.6764 2.76289 10.6764 3.76014V25.0676H40.3913L42.7321 9.67358C42.7802 9.34656 42.8965 9.03168 43.0745 8.74701C43.2525 8.46234 43.4885 8.21348 43.7692 8.01473C44.0498 7.81597 44.3695 7.67124 44.7098 7.58883C45.0502 7.50641 45.4046 7.48795 45.7525 7.5345C46.1005 7.58104 46.4353 7.69168 46.7376 7.86006C47.0399 8.02844 47.3039 8.25124 47.5143 8.51568C47.7247 8.78012 47.8774 9.08098 47.9636 9.40099C48.0499 9.72101 48.068 10.0539 48.0169 10.3805L45.5107 26.8524C45.3744 27.7485 44.8986 28.5684 44.1705 29.1615C43.4424 29.7546 42.5109 30.0811 41.5471 30.0811H10.6764V35.0946H37.3673C39.0668 35.0954 40.722 35.6041 42.0934 36.5471C43.4647 37.4901 44.4809 38.8183 44.9951 40.3398C45.5093 41.8612 45.4947 43.4968 44.9534 45.0099C44.4122 46.523 43.3723 47.8351 41.9844 48.7563C40.5964 49.6775 38.9323 50.1601 37.233 50.1341C35.5336 50.1082 33.8872 49.5751 32.5318 48.6121C31.1764 47.649 30.1825 46.3058 29.6939 44.777C29.2052 43.2482 29.2472 41.613 29.8137 40.1081H15.5608C16.0876 41.5105 16.1599 43.028 15.7685 44.4689C15.3772 45.9098 14.5397 47.2094 13.3621 48.2034C12.1845 49.1974 10.7195 49.8412 9.15233 50.0534C7.58518 50.2656 5.98622 50.0367 4.55757 49.3956C3.12893 48.7545 1.93472 47.73 1.12592 46.4516C0.317117 45.1732 -0.0699772 43.6983 0.0135685 42.2133C0.0971142 40.7283 0.647549 39.3 1.5953 38.1087C2.54304 36.9175 3.84555 36.0169 5.33818 35.5207V5.01351H2.66909C1.9612 5.01351 1.28231 4.74941 0.781758 4.2793C0.281207 3.80919 0 3.17159 0 2.50676ZM34.6982 42.6149C34.6982 41.95 34.9794 41.3124 35.4799 40.8423C35.9805 40.3722 36.6594 40.1081 37.3673 40.1081C38.0752 40.1081 38.754 40.3722 39.2546 40.8423C39.7552 41.3124 40.0364 41.95 40.0364 42.6149C40.0364 43.2797 39.7552 43.9173 39.2546 44.3874C38.754 44.8575 38.0752 45.1216 37.3673 45.1216C36.6594 45.1216 35.9805 44.8575 35.4799 44.3874C34.9794 43.9173 34.6982 43.2797 34.6982 42.6149ZM5.33818 42.6149C5.33818 41.95 5.61939 41.3124 6.11994 40.8423C6.62049 40.3722 7.29938 40.1081 8.00727 40.1081C8.71516 40.1081 9.39405 40.3722 9.8946 40.8423C10.3952 41.3124 10.6764 41.95 10.6764 42.6149C10.6764 43.2797 10.3952 43.9173 9.8946 44.3874C9.39405 44.8575 8.71516 45.1216 8.00727 45.1216C7.29938 45.1216 6.62049 44.8575 6.11994 44.3874C5.61939 43.9173 5.33818 43.2797 5.33818 42.6149Z" fill="#DDC3AF"/>
</svg>
