<svg width="46" height="47" viewBox="0 0 46 47" fill="none" xmlns="http://www.w3.org/2000/svg">
<path d="M27.9991 2.34959C27.9991 1.72644 27.7375 1.12881 27.2719 0.688178C26.8063 0.247545 26.1747 0 25.5162 0C24.8577 0 24.2262 0.247545 23.7606 0.688178C23.2949 1.12881 23.0334 1.72644 23.0334 2.34959V10.7752L19.823 7.73718C19.3547 7.30919 18.7275 7.07236 18.0765 7.07772C17.4255 7.08307 16.8028 7.33017 16.3425 7.76581C15.8821 8.20144 15.621 8.79074 15.6153 9.4068C15.6097 10.0228 15.8599 10.6164 16.3122 11.0595L23.7608 18.1083C24.2264 18.5487 24.8579 18.7962 25.5162 18.7962C26.1746 18.7962 26.806 18.5487 27.2716 18.1083L34.7203 11.0595C35.1725 10.6164 35.4228 10.0228 35.4171 9.4068C35.4115 8.79074 35.1504 8.20144 34.69 7.76581C34.2297 7.33017 33.6069 7.08307 32.9559 7.07772C32.3049 7.07236 31.6777 7.30919 31.2095 7.73718L27.9991 10.7752V2.34959Z" fill="#DDC3AF"/>
<path fill-rule="evenodd" clip-rule="evenodd" d="M0.6875 2.34959C0.6875 1.72644 0.949088 1.12881 1.41472 0.688178C1.88035 0.247545 2.51188 0 3.17038 0L6.89469 0C7.88244 0 8.82974 0.371317 9.52818 1.03227C10.2266 1.69322 10.619 2.58965 10.619 3.52438V23.4959H38.2609L40.4384 9.06705C40.4831 8.76054 40.5913 8.4654 40.7568 8.19858C40.9224 7.93176 41.142 7.6985 41.403 7.51221C41.6641 7.32592 41.9615 7.19026 42.2781 7.11301C42.5947 7.03577 42.9243 7.01846 43.248 7.06209C43.5717 7.10572 43.8831 7.20942 44.1644 7.36724C44.4456 7.52506 44.6911 7.73389 44.8868 7.98175C45.0826 8.22961 45.2246 8.51161 45.3049 8.81156C45.3851 9.11151 45.402 9.4235 45.3545 9.72963L43.023 25.1688C42.8963 26.0087 42.4537 26.7772 41.7764 27.3331C41.099 27.889 40.2325 28.1951 39.336 28.195H10.619V32.8942H35.4478C37.0288 32.895 38.5685 33.3718 39.8441 34.2556C41.1198 35.1395 42.0652 36.3845 42.5435 37.8105C43.0218 39.2365 43.0082 40.7695 42.5047 42.1878C42.0012 43.606 41.0339 44.8358 39.7427 45.6993C38.4516 46.5628 36.9037 47.0151 35.3229 46.9908C33.7421 46.9665 32.2105 46.4668 30.9497 45.5641C29.6889 44.6614 28.7643 43.4025 28.3097 41.9695C27.8552 40.5366 27.8942 39.0039 28.4212 37.5934H15.1627C15.6527 38.9078 15.7199 40.3302 15.3559 41.6807C14.9918 43.0313 14.2128 44.2494 13.1174 45.1811C12.0219 46.1128 10.6591 46.7162 9.2013 46.9151C7.74349 47.114 6.25608 46.8995 4.92711 46.2985C3.59813 45.6976 2.48724 44.7374 1.73487 43.5391C0.982493 42.3409 0.622405 40.9584 0.700122 39.5666C0.777839 38.1747 1.28987 36.8359 2.1715 35.7193C3.05312 34.6028 4.26476 33.7586 5.65325 33.2936V4.69917H3.17038C2.51188 4.69917 1.88035 4.45163 1.41472 4.01099C0.949088 3.57036 0.6875 2.97273 0.6875 2.34959ZM32.9649 39.9429C32.9649 39.3198 33.2265 38.7222 33.6921 38.2815C34.1577 37.8409 34.7893 37.5934 35.4478 37.5934C36.1063 37.5934 36.7378 37.8409 37.2034 38.2815C37.6691 38.7222 37.9307 39.3198 37.9307 39.9429C37.9307 40.5661 37.6691 41.1637 37.2034 41.6044C36.7378 42.045 36.1063 42.2925 35.4478 42.2925C34.7893 42.2925 34.1577 42.045 33.6921 41.6044C33.2265 41.1637 32.9649 40.5661 32.9649 39.9429ZM5.65325 39.9429C5.65325 39.3198 5.91484 38.7222 6.38047 38.2815C6.8461 37.8409 7.47763 37.5934 8.13613 37.5934C8.79463 37.5934 9.42616 37.8409 9.89179 38.2815C10.3574 38.7222 10.619 39.3198 10.619 39.9429C10.619 40.5661 10.3574 41.1637 9.89179 41.6044C9.42616 42.045 8.79463 42.2925 8.13613 42.2925C7.47763 42.2925 6.8461 42.045 6.38047 41.6044C5.91484 41.1637 5.65325 40.5661 5.65325 39.9429Z" fill="#DDC3AF"/>
</svg>
