<svg width="10" height="11" viewBox="0 0 10 11" fill="none" xmlns="http://www.w3.org/2000/svg">
<path d="M5.99471 0.615742C5.99471 0.484003 5.9381 0.357659 5.83732 0.264505C5.73654 0.171352 5.59986 0.119019 5.45734 0.119019C5.31482 0.119019 5.17814 0.171352 5.07736 0.264505C4.97658 0.357659 4.91997 0.484003 4.91997 0.615742V2.39699L4.22514 1.75473C4.1238 1.66425 3.98805 1.61418 3.84716 1.61531C3.70626 1.61644 3.57148 1.66868 3.47185 1.76078C3.37221 1.85288 3.3157 1.97746 3.31447 2.1077C3.31325 2.23794 3.36741 2.36341 3.4653 2.4571L5.07742 3.94727C5.17819 4.04039 5.31485 4.0927 5.45734 4.0927C5.59983 4.0927 5.73649 4.04039 5.83726 3.94727L7.44938 2.4571C7.54727 2.36341 7.60143 2.23794 7.60021 2.1077C7.59898 1.97746 7.54247 1.85288 7.44283 1.76078C7.3432 1.66868 7.20842 1.61644 7.06752 1.61531C6.92663 1.61418 6.79088 1.66425 6.68954 1.75473L5.99471 2.39699V0.615742Z" fill="#DDC3AF"/>
<path fill-rule="evenodd" clip-rule="evenodd" d="M0.0839844 0.615498C0.0839844 0.483759 0.1406 0.357415 0.241377 0.264261C0.342154 0.171108 0.478837 0.118774 0.621357 0.118774L1.42742 0.118774C1.6412 0.118774 1.84622 0.197274 1.99739 0.337005C2.14855 0.476735 2.23347 0.666251 2.23347 0.86386V5.08601H8.21604L8.68732 2.03563C8.69699 1.97083 8.72041 1.90844 8.75624 1.85203C8.79207 1.79562 8.8396 1.74631 8.8961 1.70692C8.95261 1.66754 9.01697 1.63886 9.08549 1.62253C9.15402 1.6062 9.22536 1.60254 9.29542 1.61176C9.36548 1.62099 9.43287 1.64291 9.49374 1.67628C9.55461 1.70964 9.60775 1.75379 9.65011 1.80619C9.69247 1.85859 9.72322 1.9182 9.74058 1.98162C9.75795 2.04503 9.7616 2.11099 9.75132 2.17571L9.24672 5.43968C9.2193 5.61724 9.12349 5.77971 8.9769 5.89724C8.83031 6.01476 8.64277 6.07946 8.44872 6.07946H2.23347V7.0729H7.6072C7.94938 7.07307 8.28262 7.17387 8.55871 7.36072C8.8348 7.54757 9.03941 7.81078 9.14293 8.11225C9.24645 8.41372 9.24351 8.73782 9.13453 9.03765C9.02556 9.33747 8.8162 9.59747 8.53677 9.78002C8.25733 9.96256 7.9223 10.0582 7.58017 10.053C7.23803 10.0479 6.90654 9.94228 6.63367 9.75144C6.36079 9.5606 6.16068 9.29445 6.0623 8.99151C5.96392 8.68857 5.97238 8.36455 6.08643 8.06635H3.21687C3.32292 8.34423 3.33748 8.64493 3.25869 8.93046C3.17989 9.21598 3.01129 9.4735 2.7742 9.67047C2.5371 9.86743 2.24215 9.995 1.92664 10.0371C1.61112 10.0791 1.2892 10.0337 1.00157 9.9067C0.713936 9.77967 0.473506 9.57666 0.310668 9.32334C0.14783 9.07002 0.0698957 8.77776 0.0867161 8.4835C0.103537 8.18925 0.214357 7.90621 0.405168 7.67016C0.595979 7.43411 0.858216 7.25566 1.15873 7.15735V1.11222H0.621357C0.478837 1.11222 0.342154 1.05989 0.241377 0.966734C0.1406 0.873581 0.0839844 0.747237 0.0839844 0.615498ZM7.06983 8.56307C7.06983 8.43133 7.12644 8.30499 7.22722 8.21184C7.328 8.11868 7.46468 8.06635 7.6072 8.06635C7.74972 8.06635 7.8864 8.11868 7.98718 8.21184C8.08796 8.30499 8.14457 8.43133 8.14457 8.56307C8.14457 8.69481 8.08796 8.82116 7.98718 8.91431C7.8864 9.00746 7.74972 9.0598 7.6072 9.0598C7.46468 9.0598 7.328 9.00746 7.22722 8.91431C7.12644 8.82116 7.06983 8.69481 7.06983 8.56307ZM1.15873 8.56307C1.15873 8.43133 1.21535 8.30499 1.31612 8.21184C1.4169 8.11868 1.55358 8.06635 1.6961 8.06635C1.83862 8.06635 1.9753 8.11868 2.07608 8.21184C2.17686 8.30499 2.23347 8.43133 2.23347 8.56307C2.23347 8.69481 2.17686 8.82116 2.07608 8.91431C1.9753 9.00746 1.83862 9.0598 1.6961 9.0598C1.55358 9.0598 1.4169 9.00746 1.31612 8.91431C1.21535 8.82116 1.15873 8.69481 1.15873 8.56307Z" fill="#DDC3AF"/>
</svg>
