<svg width="45" height="48" viewBox="0 0 45 48" fill="none" xmlns="http://www.w3.org/2000/svg">
<path d="M27.1391 2.3838C27.1391 1.75158 26.8792 1.14525 26.4165 0.698199C25.9538 0.25115 25.3263 0 24.6719 0C24.0176 0 23.3901 0.25115 22.9274 0.698199C22.4647 1.14525 22.2047 1.75158 22.2047 2.3838V10.9321L19.0147 7.84986C18.5494 7.41563 17.9261 7.17536 17.2792 7.18079C16.6324 7.18622 16.0136 7.43692 15.5561 7.8789C15.0987 8.32087 14.8392 8.91876 14.8336 9.54379C14.828 10.1688 15.0766 10.771 15.5261 11.2206L22.9276 18.372C23.3903 18.8189 24.0177 19.0699 24.6719 19.0699C25.3262 19.0699 25.9536 18.8189 26.4162 18.372L33.8178 11.2206C34.2672 10.771 34.5159 10.1688 34.5103 9.54379C34.5047 8.91876 34.2452 8.32087 33.7878 7.8789C33.3303 7.43692 32.7115 7.18622 32.0646 7.18079C31.4177 7.17536 30.7945 7.41563 30.3292 7.84986L27.1391 10.9321V2.3838Z" fill="#DDC3AF"/>
<path fill-rule="evenodd" clip-rule="evenodd" d="M0 2.3838C0 1.75158 0.259935 1.14525 0.722623 0.698199C1.18531 0.25115 1.81285 0 2.46719 0L6.16798 0C7.14948 0 8.09079 0.376725 8.78483 1.0473C9.47886 1.71787 9.86876 2.62737 9.86876 3.5757V23.838H37.336L39.4997 9.19909C39.5441 8.88812 39.6517 8.58868 39.8162 8.31797C39.9807 8.04726 40.1989 7.81061 40.4583 7.62161C40.7177 7.4326 41.0132 7.29497 41.3278 7.2166C41.6424 7.13823 41.97 7.12067 42.2916 7.16493C42.6133 7.2092 42.9227 7.31441 43.2022 7.47453C43.4816 7.63465 43.7256 7.84652 43.9201 8.09799C44.1146 8.34945 44.2557 8.63556 44.3355 8.93988C44.4152 9.2442 44.432 9.56074 44.3847 9.87132L42.0681 25.5353C41.9421 26.3874 41.5023 27.1671 40.8293 27.7311C40.1562 28.2952 39.2952 28.6057 38.4043 28.6056H9.86876V33.3732H34.5407C36.1117 33.374 37.6417 33.8578 38.9092 34.7545C40.1768 35.6512 41.1162 36.9143 41.5915 38.3611C42.0668 39.8079 42.0533 41.3633 41.553 42.8021C41.0527 44.241 40.0915 45.4888 38.8085 46.3648C37.5255 47.2409 35.9874 47.6998 34.4165 47.6751C32.8457 47.6504 31.3238 47.1435 30.071 46.2277C28.8181 45.3118 27.8994 44.0346 27.4477 42.5807C26.996 41.1269 27.0348 39.5719 27.5585 38.1408H14.3837C14.8707 39.4744 14.9375 40.9175 14.5757 42.2877C14.214 43.658 13.4399 44.8938 12.3513 45.8391C11.2628 46.7843 9.90861 47.3965 8.46001 47.5983C7.01141 47.8001 5.5334 47.5824 4.21282 46.9728C2.89224 46.3631 1.78837 45.3889 1.04075 44.1732C0.293129 42.9575 -0.0646839 41.5549 0.0125421 40.1428C0.0897681 38.7306 0.598566 37.3723 1.47462 36.2395C2.35068 35.1067 3.55466 34.2503 4.93438 33.7785V4.7676H2.46719C1.81285 4.7676 1.18531 4.51645 0.722623 4.0694C0.259935 3.62235 0 3.01603 0 2.3838ZM32.0735 40.5246C32.0735 39.8924 32.3334 39.2861 32.7961 38.839C33.2588 38.392 33.8863 38.1408 34.5407 38.1408C35.195 38.1408 35.8225 38.392 36.2852 38.839C36.7479 39.2861 37.0079 39.8924 37.0079 40.5246C37.0079 41.1569 36.7479 41.7632 36.2852 42.2102C35.8225 42.6573 35.195 42.9084 34.5407 42.9084C33.8863 42.9084 33.2588 42.6573 32.7961 42.2102C32.3334 41.7632 32.0735 41.1569 32.0735 40.5246ZM4.93438 40.5246C4.93438 39.8924 5.19432 39.2861 5.657 38.839C6.11969 38.392 6.74723 38.1408 7.40157 38.1408C8.05591 38.1408 8.68345 38.392 9.14614 38.839C9.60882 39.2861 9.86876 39.8924 9.86876 40.5246C9.86876 41.1569 9.60882 41.7632 9.14614 42.2102C8.68345 42.6573 8.05591 42.9084 7.40157 42.9084C6.74723 42.9084 6.11969 42.6573 5.657 42.2102C5.19432 41.7632 4.93438 41.1569 4.93438 40.5246Z" fill="#DDC3AF"/>
</svg>
