<svg width="45" height="50" viewBox="0 0 45 50" fill="none" xmlns="http://www.w3.org/2000/svg">
<path d="M27.111 2.4647C27.111 1.81104 26.8514 1.18415 26.3892 0.721938C25.927 0.259728 25.3001 6.10352e-05 24.6464 6.10352e-05C23.9927 6.10352e-05 23.3658 0.259728 22.9036 0.721938C22.4414 1.18415 22.1818 1.81104 22.1818 2.4647V11.3029L18.995 8.11613C18.5301 7.66717 17.9076 7.41875 17.2613 7.42437C16.6151 7.42998 15.997 7.68919 15.54 8.14615C15.083 8.60311 14.8238 9.22128 14.8182 9.8675C14.8126 10.5137 15.061 11.1363 15.51 11.6011L22.9039 18.9951C23.3661 19.4571 23.9929 19.7167 24.6464 19.7167C25.2999 19.7167 25.9267 19.4571 26.3889 18.9951L33.7828 11.6011C34.2318 11.1363 34.4802 10.5137 34.4746 9.8675C34.469 9.22128 34.2098 8.60311 33.7528 8.14615C33.2958 7.68919 32.6777 7.42998 32.0315 7.42437C31.3852 7.41875 30.7627 7.66717 30.2978 8.11613L27.111 11.3029V2.4647Z" fill="#DDC3AF"/>
<path fill-rule="evenodd" clip-rule="evenodd" d="M0 2.46464C0 1.81098 0.259667 1.18409 0.721877 0.721877C1.18409 0.259667 1.81098 0 2.46464 0L6.1616 0C7.1421 0 8.08244 0.3895 8.77575 1.08282C9.46907 1.77613 9.85857 2.71647 9.85857 3.69696V24.6464H37.2974L39.4589 9.51105C39.5033 9.18953 39.6107 8.87994 39.775 8.60005C39.9394 8.32017 40.1574 8.07549 40.4165 7.88008C40.6757 7.68466 40.9708 7.54236 41.2851 7.46133C41.5994 7.3803 41.9266 7.36215 42.2479 7.40791C42.5693 7.45368 42.8784 7.56246 43.1576 7.72801C43.4367 7.89356 43.6805 8.11262 43.8747 8.37261C44.069 8.6326 44.21 8.92841 44.2897 9.24305C44.3693 9.55769 44.3861 9.88496 44.3389 10.2061L42.0246 26.4012C41.8988 27.2823 41.4594 28.0884 40.7871 28.6716C40.1148 29.2547 39.2546 29.5757 38.3646 29.5757H9.85857V34.505H34.505C36.0744 34.5058 37.6028 35.006 38.8691 35.9331C40.1353 36.8602 41.0738 38.1662 41.5486 39.662C42.0233 41.1579 42.0099 42.766 41.5101 44.2537C41.0103 45.7413 40.0501 47.0314 38.7684 47.9371C37.4868 48.8429 35.9502 49.3174 34.381 49.2919C32.8118 49.2664 31.2915 48.7422 30.0399 47.7953C28.7884 46.8484 27.8706 45.5279 27.4194 44.0247C26.9682 42.5216 27.0069 40.9139 27.5301 39.4343H14.3689C14.8553 40.813 14.922 42.3051 14.5607 43.7218C14.1993 45.1385 13.426 46.4163 12.3386 47.3936C11.2511 48.3709 9.89838 49.0039 8.45127 49.2125C7.00416 49.4211 5.52769 49.1961 4.20847 48.5657C2.88926 47.9354 1.78653 46.9281 1.03968 45.6712C0.292826 44.4143 -0.0646171 42.9641 0.0125292 41.5041C0.0896754 40.0441 0.597948 38.6397 1.4731 37.4685C2.34825 36.2972 3.55099 35.4118 4.92928 34.924V4.92928H2.46464C1.81098 4.92928 1.18409 4.66962 0.721877 4.20741C0.259667 3.7452 0 3.11831 0 2.46464ZM32.0403 41.8989C32.0403 41.2453 32.3 40.6184 32.7622 40.1561C33.2244 39.6939 33.8513 39.4343 34.505 39.4343C35.1587 39.4343 35.7855 39.6939 36.2478 40.1561C36.71 40.6184 36.9696 41.2453 36.9696 41.8989C36.9696 42.5526 36.71 43.1795 36.2478 43.6417C35.7855 44.1039 35.1587 44.3636 34.505 44.3636C33.8513 44.3636 33.2244 44.1039 32.7622 43.6417C32.3 43.1795 32.0403 42.5526 32.0403 41.8989ZM4.92928 41.8989C4.92928 41.2453 5.18895 40.6184 5.65116 40.1561C6.11337 39.6939 6.74026 39.4343 7.39393 39.4343C8.04759 39.4343 8.67448 39.6939 9.13669 40.1561C9.5989 40.6184 9.85857 41.2453 9.85857 41.8989C9.85857 42.5526 9.5989 43.1795 9.13669 43.6417C8.67448 44.1039 8.04759 44.3636 7.39393 44.3636C6.74026 44.3636 6.11337 44.1039 5.65116 43.6417C5.18895 43.1795 4.92928 42.5526 4.92928 41.8989Z" fill="#DDC3AF"/>
</svg>
