<svg width="45" height="50" viewBox="0 0 45 50" fill="none" xmlns="http://www.w3.org/2000/svg">
<path d="M27.1112 2.46464C27.1112 1.81098 26.8515 1.18409 26.3893 0.721877C25.9271 0.259667 25.3002 0 24.6465 0C23.9929 0 23.366 0.259667 22.9038 0.721877C22.4415 1.18409 22.1819 1.81098 22.1819 2.46464V11.3028L18.9951 8.11607C18.5303 7.66711 17.9077 7.41869 17.2615 7.4243C16.6152 7.42992 15.9971 7.68912 15.5401 8.14609C15.0832 8.60305 14.8239 9.22122 14.8183 9.86744C14.8127 10.5137 15.0611 11.1362 15.5101 11.6011L22.904 18.995C23.3662 19.457 23.993 19.7166 24.6465 19.7166C25.3001 19.7166 25.9268 19.457 26.389 18.995L33.7829 11.6011C34.2319 11.1362 34.4803 10.5137 34.4747 9.86744C34.4691 9.22122 34.2099 8.60305 33.7529 8.14609C33.296 7.68912 32.6778 7.42992 32.0316 7.4243C31.3854 7.41869 30.7628 7.66711 30.2979 8.11607L27.1112 11.3028V2.46464Z" fill="#DDC3AF"/>
<path fill-rule="evenodd" clip-rule="evenodd" d="M0 2.46464C0 1.81098 0.259667 1.18409 0.721877 0.721877C1.18409 0.259667 1.81098 0 2.46464 0L6.1616 0C7.1421 0 8.08244 0.3895 8.77575 1.08282C9.46907 1.77613 9.85857 2.71647 9.85857 3.69696V24.6464H37.2974L39.4589 9.51105C39.5033 9.18953 39.6107 8.87994 39.775 8.60005C39.9394 8.32017 40.1574 8.07549 40.4165 7.88008C40.6757 7.68466 40.9708 7.54236 41.2851 7.46133C41.5994 7.3803 41.9266 7.36215 42.2479 7.40791C42.5693 7.45368 42.8784 7.56246 43.1576 7.72801C43.4367 7.89356 43.6805 8.11262 43.8747 8.37261C44.069 8.6326 44.21 8.92841 44.2897 9.24305C44.3693 9.55769 44.3861 9.88496 44.3389 10.2061L42.0246 26.4012C41.8988 27.2823 41.4594 28.0884 40.7871 28.6716C40.1148 29.2547 39.2546 29.5757 38.3646 29.5757H9.85857V34.505H34.505C36.0744 34.5058 37.6028 35.006 38.8691 35.9331C40.1353 36.8602 41.0738 38.1662 41.5486 39.662C42.0233 41.1579 42.0099 42.766 41.5101 44.2537C41.0103 45.7413 40.0501 47.0314 38.7684 47.9371C37.4868 48.8429 35.9502 49.3174 34.381 49.2919C32.8118 49.2664 31.2915 48.7422 30.0399 47.7953C28.7884 46.8484 27.8706 45.5279 27.4194 44.0247C26.9682 42.5216 27.0069 40.9139 27.5301 39.4343H14.3689C14.8553 40.813 14.922 42.3051 14.5607 43.7218C14.1993 45.1385 13.426 46.4163 12.3386 47.3936C11.2511 48.3709 9.89838 49.0039 8.45127 49.2125C7.00416 49.4211 5.52769 49.1961 4.20847 48.5657C2.88926 47.9354 1.78653 46.9281 1.03968 45.6712C0.292826 44.4143 -0.0646171 42.9641 0.0125292 41.5041C0.0896754 40.0441 0.597948 38.6397 1.4731 37.4685C2.34825 36.2972 3.55099 35.4118 4.92928 34.924V4.92928H2.46464C1.81098 4.92928 1.18409 4.66962 0.721877 4.20741C0.259667 3.7452 0 3.11831 0 2.46464ZM32.0403 41.8989C32.0403 41.2453 32.3 40.6184 32.7622 40.1561C33.2244 39.6939 33.8513 39.4343 34.505 39.4343C35.1587 39.4343 35.7855 39.6939 36.2478 40.1561C36.71 40.6184 36.9696 41.2453 36.9696 41.8989C36.9696 42.5526 36.71 43.1795 36.2478 43.6417C35.7855 44.1039 35.1587 44.3636 34.505 44.3636C33.8513 44.3636 33.2244 44.1039 32.7622 43.6417C32.3 43.1795 32.0403 42.5526 32.0403 41.8989ZM4.92928 41.8989C4.92928 41.2453 5.18895 40.6184 5.65116 40.1561C6.11337 39.6939 6.74026 39.4343 7.39393 39.4343C8.04759 39.4343 8.67448 39.6939 9.13669 40.1561C9.5989 40.6184 9.85857 41.2453 9.85857 41.8989C9.85857 42.5526 9.5989 43.1795 9.13669 43.6417C8.67448 44.1039 8.04759 44.3636 7.39393 44.3636C6.74026 44.3636 6.11337 44.1039 5.65116 43.6417C5.18895 43.1795 4.92928 42.5526 4.92928 41.8989Z" fill="#DDC3AF"/>
</svg>
