<svg width="45" height="44" viewBox="0 0 45 44" fill="none" xmlns="http://www.w3.org/2000/svg">
<path d="M27.1391 2.64534C27.1391 2.07261 26.8792 1.52333 26.4165 1.11834C25.9538 0.713358 25.3263 0.48584 24.6719 0.48584C24.0176 0.48584 23.3901 0.713358 22.9274 1.11834C22.4647 1.52333 22.2047 2.07261 22.2047 2.64534V10.3893L19.0147 7.59708C18.5494 7.20371 17.9261 6.98605 17.2792 6.99097C16.6324 6.99589 16.0136 7.223 15.5561 7.62339C15.0987 8.02378 14.8392 8.56541 14.8336 9.13162C14.828 9.69784 15.0766 10.2433 15.5261 10.6506L22.9276 17.1291C23.3903 17.534 24.0177 17.7614 24.6719 17.7614C25.3261 17.7614 25.9536 17.534 26.4162 17.1291L33.8178 10.6506C34.2672 10.2433 34.5159 9.69784 34.5103 9.13162C34.5047 8.56541 34.2452 8.02378 33.7878 7.62339C33.3303 7.223 32.7115 6.99589 32.0646 6.99097C31.4177 6.98605 30.7945 7.20371 30.3292 7.59708L27.1391 10.3893V2.64534Z" fill="#DDC3AF"/>
<path fill-rule="evenodd" clip-rule="evenodd" d="M0 2.64534C0 2.07261 0.259935 1.52333 0.722623 1.11834C1.18531 0.713358 1.81285 0.48584 2.46719 0.48584L6.16797 0.48584C7.14948 0.48584 8.09079 0.827117 8.78483 1.4346C9.47886 2.04207 9.86876 2.86599 9.86876 3.72509V22.0809H37.336L39.4997 8.81936C39.5441 8.53765 39.6517 8.26639 39.8162 8.02115C39.9807 7.77591 40.1989 7.56153 40.4583 7.39031C40.7177 7.21909 41.0132 7.0944 41.3278 7.02341C41.6424 6.95241 41.97 6.9365 42.2916 6.9766C42.6133 7.0167 42.9227 7.11201 43.2022 7.25707C43.4816 7.40212 43.7256 7.59406 43.9201 7.82186C44.1146 8.04967 44.2557 8.30885 44.3355 8.58454C44.4152 8.86022 44.432 9.14698 44.3847 9.42834L42.0681 23.6184C41.9421 24.3904 41.5023 25.0967 40.8293 25.6077C40.1562 26.1186 39.2952 26.3999 38.4043 26.3999H9.86876V30.7189H34.5407C36.1117 30.7196 37.6417 31.1578 38.9092 31.9702C40.1768 32.7825 41.1162 33.9268 41.5915 35.2374C42.0668 36.5481 42.0533 37.9571 41.553 39.2606C41.0527 40.5641 40.0915 41.6944 38.8085 42.488C37.5255 43.2817 35.9874 43.6974 34.4165 43.675C32.8457 43.6527 31.3238 43.1935 30.071 42.3638C28.8181 41.5341 27.8994 40.377 27.4477 39.06C26.996 37.743 27.0348 36.3343 27.5585 35.0379H14.3837C14.8707 36.246 14.9375 37.5533 14.5757 38.7946C14.214 40.0359 13.4399 41.1555 12.3513 42.0118C11.2628 42.8681 9.90861 43.4227 8.46001 43.6055C7.0114 43.7883 5.5334 43.5911 4.21282 43.0388C2.89224 42.4865 1.78837 41.6039 1.04075 40.5026C0.293129 39.4013 -0.0646839 38.1307 0.0125421 36.8515C0.0897681 35.5722 0.598566 34.3417 1.47462 33.3155C2.35068 32.2892 3.55466 31.5134 4.93438 31.086V4.80484H2.46719C1.81285 4.80484 1.18531 4.57733 0.722623 4.17234C0.259935 3.76736 0 3.21808 0 2.64534ZM32.0735 37.1974C32.0735 36.6246 32.3334 36.0754 32.7961 35.6704C33.2588 35.2654 33.8863 35.0379 34.5407 35.0379C35.195 35.0379 35.8225 35.2654 36.2852 35.6704C36.7479 36.0754 37.0079 36.6246 37.0079 37.1974C37.0079 37.7701 36.7479 38.3194 36.2852 38.7244C35.8225 39.1294 35.195 39.3569 34.5407 39.3569C33.8863 39.3569 33.2588 39.1294 32.7961 38.7244C32.3334 38.3194 32.0735 37.7701 32.0735 37.1974ZM4.93438 37.1974C4.93438 36.6246 5.19432 36.0754 5.657 35.6704C6.11969 35.2654 6.74723 35.0379 7.40157 35.0379C8.05591 35.0379 8.68345 35.2654 9.14614 35.6704C9.60882 36.0754 9.86876 36.6246 9.86876 37.1974C9.86876 37.7701 9.60882 38.3194 9.14614 38.7244C8.68345 39.1294 8.05591 39.3569 7.40157 39.3569C6.74723 39.3569 6.11969 39.1294 5.657 38.7244C5.19432 38.3194 4.93438 37.7701 4.93438 37.1974Z" fill="#DDC3AF"/>
</svg>
