<svg width="46" height="51" viewBox="0 0 46 51" fill="none" xmlns="http://www.w3.org/2000/svg">
<path d="M28.0151 2.50677C28.0151 1.84194 27.7534 1.20434 27.2875 0.734227C26.8216 0.264119 26.1897 1.52588e-05 25.5308 1.52588e-05C24.8719 1.52588e-05 24.24 0.264119 23.7741 0.734227C23.3082 1.20434 23.0465 1.84194 23.0465 2.50677V11.496L19.8342 8.25477C19.3657 7.79814 18.7381 7.54547 18.0868 7.55118C17.4354 7.5569 16.8123 7.82053 16.3517 8.2853C15.8911 8.75007 15.6298 9.3788 15.6241 10.0361C15.6185 10.6933 15.8689 11.3265 16.3214 11.7993L23.7744 19.3196C24.2403 19.7895 24.872 20.0535 25.5308 20.0535C26.1895 20.0535 26.8213 19.7895 27.2872 19.3196L34.7402 11.7993C35.1927 11.3265 35.4431 10.6933 35.4375 10.0361C35.4318 9.3788 35.1705 8.75007 34.7099 8.2853C34.2493 7.82053 33.6262 7.5569 32.9748 7.55118C32.3234 7.54547 31.6959 7.79814 31.2273 8.25477L28.0151 11.496V2.50677Z" fill="#DDC3AF"/>
<path fill-rule="evenodd" clip-rule="evenodd" d="M0.6875 2.50676C0.6875 1.84192 0.94924 1.20432 1.41514 0.734212C1.88104 0.264104 2.51294 0 3.17182 0L6.89831 0C7.88663 0 8.83448 0.396156 9.53333 1.10132C10.2322 1.80648 10.6248 2.76289 10.6248 3.76014V25.0676H38.2828L40.4615 9.67358C40.5062 9.34656 40.6145 9.03168 40.7802 8.74701C40.9458 8.46234 41.1655 8.21348 41.4268 8.01473C41.688 7.81597 41.9855 7.67124 42.3023 7.58883C42.6191 7.50641 42.9489 7.48795 43.2728 7.5345C43.5967 7.58104 43.9083 7.69168 44.1897 7.86006C44.4711 8.02844 44.7168 8.25124 44.9126 8.51568C45.1084 8.78012 45.2506 9.08098 45.3309 9.40099C45.4112 9.72101 45.428 10.0539 45.3805 10.3805L43.0477 26.8524C42.9209 27.7485 42.478 28.5684 41.8003 29.1615C41.1226 29.7546 40.2556 30.0811 39.3585 30.0811H10.6248V35.0946H35.468C37.0499 35.0954 38.5906 35.6041 39.867 36.5471C41.1433 37.4901 42.0893 38.8184 42.5678 40.3398C43.0464 41.8612 43.0328 43.4968 42.529 45.0099C42.0252 46.523 41.0574 47.8351 39.7655 48.7563C38.4736 49.6775 36.9248 50.1601 35.3431 50.1342C33.7613 50.1082 32.2288 49.5751 30.9673 48.6121C29.7058 47.649 28.7806 46.3058 28.3258 44.777C27.871 43.2482 27.9101 41.613 28.4374 40.1081H15.1711C15.6614 41.5105 15.7287 43.028 15.3644 44.4689C15.0002 45.9098 14.2207 47.2094 13.1246 48.2034C12.0285 49.1974 10.6649 49.8412 9.20626 50.0534C7.7476 50.2656 6.25933 50.0367 4.92958 49.3956C3.59983 48.7545 2.48829 47.73 1.73548 46.4516C0.982665 45.1732 0.622367 43.6983 0.700129 42.2133C0.777891 40.7283 1.29022 39.3 2.17236 38.1087C3.0545 36.9175 4.26684 36.0169 5.65615 35.5208V5.01351H3.17182C2.51294 5.01351 1.88104 4.74941 1.41514 4.2793C0.94924 3.80919 0.6875 3.17159 0.6875 2.50676ZM32.9837 42.6149C32.9837 41.95 33.2454 41.3124 33.7113 40.8423C34.1772 40.3722 34.8091 40.1081 35.468 40.1081C36.1269 40.1081 36.7588 40.3722 37.2247 40.8423C37.6906 41.3124 37.9523 41.95 37.9523 42.6149C37.9523 43.2797 37.6906 43.9173 37.2247 44.3874C36.7588 44.8575 36.1269 45.1216 35.468 45.1216C34.8091 45.1216 34.1772 44.8575 33.7113 44.3874C33.2454 43.9173 32.9837 43.2797 32.9837 42.6149ZM5.65615 42.6149C5.65615 41.95 5.91789 41.3124 6.38379 40.8423C6.84969 40.3722 7.48159 40.1081 8.14047 40.1081C8.79935 40.1081 9.43125 40.3722 9.89715 40.8423C10.3631 41.3124 10.6248 41.95 10.6248 42.6149C10.6248 43.2797 10.3631 43.9173 9.89715 44.3874C9.43125 44.8575 8.79935 45.1216 8.14047 45.1216C7.48159 45.1216 6.84969 44.8575 6.38379 44.3874C5.91789 43.9173 5.65615 43.2797 5.65615 42.6149Z" fill="#DDC3AF"/>
</svg>
