<svg width="11" height="11" viewBox="0 0 11 11" fill="none" xmlns="http://www.w3.org/2000/svg">
<path d="M6.58553 0.61562C6.58553 0.483881 6.52892 0.357537 6.42814 0.264383C6.32736 0.17123 6.19068 0.118896 6.04816 0.118896C5.90564 0.118896 5.76896 0.17123 5.66818 0.264383C5.5674 0.357537 5.51079 0.483881 5.51079 0.61562V2.39687L4.81596 1.75461C4.71462 1.66412 4.57887 1.61406 4.43798 1.61519C4.29708 1.61632 4.1623 1.66856 4.06267 1.76066C3.96303 1.85275 3.90652 1.97734 3.90529 2.10758C3.90407 2.23782 3.95823 2.36329 4.05612 2.45697L5.66824 3.94714C5.76901 4.04026 5.90567 4.09258 6.04816 4.09258C6.19065 4.09258 6.32731 4.04026 6.42808 3.94714L8.0402 2.45697C8.13809 2.36329 8.19225 2.23782 8.19103 2.10758C8.1898 1.97734 8.13329 1.85275 8.03365 1.76066C7.93402 1.66856 7.79924 1.61632 7.65834 1.61519C7.51745 1.61406 7.38171 1.66412 7.28036 1.75461L6.58553 2.39687V0.61562Z" fill="#DDC3AF"/>
<path fill-rule="evenodd" clip-rule="evenodd" d="M0.674805 0.61562C0.674805 0.483881 0.731421 0.357537 0.832197 0.264383C0.932974 0.17123 1.06966 0.118896 1.21218 0.118896L2.01824 0.118896C2.23202 0.118896 2.43704 0.197396 2.58821 0.337127C2.73937 0.476857 2.82429 0.666373 2.82429 0.863982V5.08613H8.80686L9.27814 2.03575C9.28781 1.97095 9.31123 1.90856 9.34706 1.85215C9.38289 1.79574 9.43042 1.74643 9.48693 1.70705C9.54343 1.66766 9.60779 1.63898 9.67631 1.62265C9.74484 1.60632 9.81618 1.60266 9.88624 1.61189C9.9563 1.62111 10.0237 1.64303 10.0846 1.6764C10.1454 1.70976 10.1986 1.75391 10.2409 1.80631C10.2833 1.85871 10.314 1.91833 10.3314 1.98174C10.3488 2.04515 10.3524 2.11111 10.3421 2.17583L9.83754 5.4398C9.81012 5.61737 9.71431 5.77983 9.56772 5.89736C9.42113 6.01488 9.23359 6.07958 9.03954 6.07958H2.82429V7.07302H8.19802C8.5402 7.07319 8.87344 7.17399 9.14953 7.36084C9.42562 7.54769 9.63023 7.8109 9.73375 8.11237C9.83727 8.41384 9.83433 8.73794 9.72535 9.03777C9.61638 9.3376 9.40702 9.59759 9.12759 9.78014C8.84815 9.96268 8.51312 10.0583 8.17099 10.0532C7.82885 10.048 7.49736 9.9424 7.22449 9.75156C6.95161 9.56072 6.7515 9.29457 6.65312 8.99163C6.55474 8.68869 6.5632 8.36468 6.67726 8.06647H3.80769C3.91374 8.34435 3.9283 8.64505 3.84951 8.93058C3.77071 9.2161 3.60211 9.47362 3.36502 9.67059C3.12792 9.86755 2.83297 9.99513 2.51746 10.0372C2.20194 10.0792 1.88002 10.0339 1.59239 9.90683C1.30476 9.77979 1.06433 9.57678 0.901488 9.32346C0.73865 9.07014 0.660716 8.77788 0.677536 8.48363C0.694357 8.18937 0.805177 7.90633 0.995988 7.67028C1.1868 7.43424 1.44904 7.25578 1.74955 7.15747V1.11234H1.21218C1.06966 1.11234 0.932974 1.06001 0.832197 0.966856C0.731421 0.873703 0.674805 0.747359 0.674805 0.61562ZM7.66065 8.56319C7.66065 8.43146 7.71726 8.30511 7.81804 8.21196C7.91882 8.1188 8.0555 8.06647 8.19802 8.06647C8.34054 8.06647 8.47722 8.1188 8.578 8.21196C8.67878 8.30511 8.73539 8.43146 8.73539 8.56319C8.73539 8.69493 8.67878 8.82128 8.578 8.91443C8.47722 9.00759 8.34054 9.05992 8.19802 9.05992C8.0555 9.05992 7.91882 9.00759 7.81804 8.91443C7.71726 8.82128 7.66065 8.69493 7.66065 8.56319ZM1.74955 8.56319C1.74955 8.43146 1.80617 8.30511 1.90694 8.21196C2.00772 8.1188 2.1444 8.06647 2.28692 8.06647C2.42944 8.06647 2.56612 8.1188 2.6669 8.21196C2.76768 8.30511 2.82429 8.43146 2.82429 8.56319C2.82429 8.69493 2.76768 8.82128 2.6669 8.91443C2.56612 9.00759 2.42944 9.05992 2.28692 9.05992C2.1444 9.05992 2.00772 9.00759 1.90694 8.91443C1.80617 8.82128 1.74955 8.69493 1.74955 8.56319Z" fill="#DDC3AF"/>
</svg>
