<svg width="45" height="48" viewBox="0 0 45 48" fill="none" xmlns="http://www.w3.org/2000/svg">
<path d="M27.1391 2.88196C27.1391 2.26226 26.8792 1.66796 26.4165 1.22977C25.9538 0.791581 25.3263 0.54541 24.6719 0.54541C24.0176 0.54541 23.3901 0.791581 22.9274 1.22977C22.4647 1.66796 22.2047 2.26226 22.2047 2.88196V11.2608L19.0147 8.23965C18.5494 7.81403 17.9261 7.57852 17.2792 7.58385C16.6324 7.58917 16.0136 7.8349 15.5561 8.26812C15.0987 8.70133 14.8392 9.28736 14.8336 9.9C14.828 10.5126 15.0766 11.1028 15.5261 11.5435L22.9276 18.5532C23.3903 18.9912 24.0177 19.2373 24.6719 19.2373C25.3261 19.2373 25.9536 18.9912 26.4162 18.5532L33.8178 11.5435C34.2672 11.1028 34.5159 10.5126 34.5103 9.9C34.5047 9.28736 34.2452 8.70133 33.7878 8.26812C33.3303 7.8349 32.7115 7.58917 32.0646 7.58385C31.4177 7.57852 30.7945 7.81403 30.3292 8.23965L27.1391 11.2608V2.88196Z" fill="#DDC3AF"/>
<path fill-rule="evenodd" clip-rule="evenodd" d="M0 2.88196C0 2.26227 0.259935 1.66796 0.722623 1.22977C1.18531 0.791581 1.81285 0.54541 2.46719 0.54541L6.16797 0.54541C7.14948 0.54541 8.09079 0.914667 8.78483 1.57195C9.47886 2.22923 9.86876 3.12069 9.86876 4.05023V23.9109H37.336L39.4997 9.56214C39.5441 9.25733 39.6517 8.96383 39.8162 8.69849C39.9807 8.43315 40.1989 8.20119 40.4583 8.01593C40.7177 7.83067 41.0132 7.69576 41.3278 7.61895C41.6424 7.54213 41.97 7.52492 42.2916 7.56831C42.6133 7.61169 42.9227 7.71482 43.2022 7.87176C43.4816 8.02871 43.7256 8.23638 43.9201 8.48286C44.1146 8.72934 44.2557 9.00978 44.3355 9.30806C44.4152 9.60635 44.432 9.91661 44.3847 10.221L42.0681 25.5745C41.9421 26.4098 41.5023 27.174 40.8293 27.7268C40.1562 28.2796 39.2952 28.584 38.4043 28.584H9.86876V33.257H34.5407C36.1117 33.2578 37.6417 33.732 38.9092 34.6109C40.1768 35.4898 41.1162 36.7279 41.5915 38.146C42.0668 39.5641 42.0533 41.0887 41.553 42.499C41.0527 43.9094 40.0915 45.1324 38.8085 45.9911C37.5255 46.8498 35.9874 47.2996 34.4165 47.2754C32.8457 47.2512 31.3238 46.7543 30.071 45.8566C28.8181 44.959 27.8994 43.707 27.4477 42.282C26.996 40.857 27.0348 39.3329 27.5585 37.9301H14.3837C14.8707 39.2373 14.9375 40.6517 14.5757 41.9948C14.214 43.3379 13.4399 44.5492 12.3513 45.4758C11.2628 46.4023 9.90861 47.0024 8.46001 47.2002C7.0114 47.3979 5.5334 47.1846 4.21282 46.587C2.89224 45.9894 1.78837 45.0345 1.04075 43.8429C0.293129 42.6513 -0.0646839 41.2765 0.0125421 39.8924C0.0897681 38.5082 0.598566 37.1768 1.47462 36.0665C2.35068 34.9562 3.55466 34.1167 4.93438 33.6543V5.2185H2.46719C1.81285 5.2185 1.18531 4.97233 0.722623 4.53414C0.259935 4.09596 0 3.50165 0 2.88196ZM32.0735 40.2667C32.0735 39.647 32.3334 39.0527 32.7961 38.6145C33.2588 38.1763 33.8863 37.9301 34.5407 37.9301C35.195 37.9301 35.8225 38.1763 36.2852 38.6145C36.7479 39.0527 37.0079 39.647 37.0079 40.2667C37.0079 40.8864 36.7479 41.4807 36.2852 41.9189C35.8225 42.3571 35.195 42.6032 34.5407 42.6032C33.8863 42.6032 33.2588 42.3571 32.7961 41.9189C32.3334 41.4807 32.0735 40.8864 32.0735 40.2667ZM4.93438 40.2667C4.93438 39.647 5.19432 39.0527 5.657 38.6145C6.11969 38.1763 6.74723 37.9301 7.40157 37.9301C8.05591 37.9301 8.68345 38.1763 9.14614 38.6145C9.60882 39.0527 9.86876 39.647 9.86876 40.2667C9.86876 40.8864 9.60882 41.4807 9.14614 41.9189C8.68345 42.3571 8.05591 42.6032 7.40157 42.6032C6.74723 42.6032 6.11969 42.3571 5.657 41.9189C5.19432 41.4807 4.93438 40.8864 4.93438 40.2667Z" fill="#DDC3AF"/>
</svg>
