<svg width="45" height="45" viewBox="0 0 45 45" fill="none" xmlns="http://www.w3.org/2000/svg">
<path d="M27.3044 2.59523C27.3044 2.00594 27.0445 1.44078 26.5818 1.02408C26.1191 0.607388 25.4916 0.373291 24.8372 0.373291C24.1829 0.373291 23.5553 0.607388 23.0927 1.02408C22.63 1.44078 22.37 2.00594 22.37 2.59523V10.5631L19.18 7.69014C18.7146 7.28539 18.0914 7.06143 17.4445 7.0665C16.7976 7.07156 16.1788 7.30524 15.7214 7.7172C15.264 8.12917 15.0045 8.68646 14.9989 9.26904C14.9933 9.85163 15.2419 10.4129 15.6913 10.832L23.0929 17.4978C23.5556 17.9143 24.183 18.1483 24.8372 18.1483C25.4914 18.1483 26.1189 17.9143 26.5815 17.4978L33.9831 10.832C34.4325 10.4129 34.6812 9.85163 34.6756 9.26904C34.67 8.68646 34.4105 8.12917 33.953 7.7172C33.4956 7.30524 32.8768 7.07156 32.2299 7.0665C31.583 7.06143 30.9598 7.28539 30.4945 7.69014L27.3044 10.5631V2.59523Z" fill="#DDC3AF"/>
<path fill-rule="evenodd" clip-rule="evenodd" d="M0.165283 2.59523C0.165283 2.00594 0.425218 1.44078 0.887906 1.02408C1.35059 0.607388 1.97813 0.373291 2.63247 0.373291L6.33326 0.373291C7.31477 0.373291 8.25608 0.724436 8.95011 1.34948C9.64414 1.97452 10.034 2.82226 10.034 3.7062V22.5927H37.5013L39.665 8.94775C39.7094 8.6579 39.8169 8.37879 39.9814 8.12646C40.1459 7.87414 40.3642 7.65356 40.6236 7.47738C40.883 7.30121 41.1785 7.17292 41.4931 7.09987C41.8077 7.02682 42.1353 7.01046 42.4569 7.05172C42.7786 7.09298 43.088 7.19104 43.3675 7.34029C43.6469 7.48954 43.8909 7.68703 44.0854 7.92142C44.2799 8.15581 44.421 8.42249 44.5008 8.70614C44.5805 8.9898 44.5972 9.28484 44.55 9.57434L42.2333 24.1747C42.1074 24.969 41.6676 25.6957 40.9945 26.2215C40.3215 26.7472 39.4605 27.0366 38.5696 27.0366H10.034V31.4804H34.7059C36.277 31.4812 37.807 31.9321 39.0745 32.7679C40.3421 33.6037 41.2815 34.7811 41.7568 36.1296C42.2321 37.4782 42.2186 38.9279 41.7183 40.2691C41.2179 41.6103 40.2567 42.7733 38.9738 43.5899C37.6908 44.4064 36.1526 44.8342 34.5818 44.8112C33.011 44.7882 31.4891 44.3157 30.2363 43.462C28.9834 42.6084 28.0647 41.4178 27.613 40.0627C27.1613 38.7076 27.2001 37.2582 27.7238 35.9243H14.549C15.0359 37.1673 15.1028 38.5124 14.741 39.7896C14.3793 41.0668 13.6052 42.2188 12.5166 43.0998C11.4281 43.9809 10.0739 44.5516 8.62529 44.7396C7.17669 44.9277 5.69868 44.7248 4.3781 44.1566C3.05753 43.5883 1.95366 42.6802 1.20603 41.5471C0.458412 40.4139 0.100599 39.1066 0.177825 37.7903C0.255051 36.4741 0.763849 35.208 1.6399 34.1521C2.51596 33.0962 3.71994 32.2979 5.09966 31.8582V4.81717H2.63247C1.97813 4.81717 1.35059 4.58307 0.887906 4.16638C0.425218 3.74968 0.165283 3.18452 0.165283 2.59523ZM32.2388 38.1463C32.2388 37.557 32.4987 36.9918 32.9614 36.5751C33.4241 36.1584 34.0516 35.9243 34.7059 35.9243C35.3603 35.9243 35.9878 36.1584 36.4505 36.5751C36.9132 36.9918 37.1731 37.557 37.1731 38.1463C37.1731 38.7355 36.9132 39.3007 36.4505 39.7174C35.9878 40.1341 35.3603 40.3682 34.7059 40.3682C34.0516 40.3682 33.4241 40.1341 32.9614 39.7174C32.4987 39.3007 32.2388 38.7355 32.2388 38.1463ZM5.09966 38.1463C5.09966 37.557 5.3596 36.9918 5.82229 36.5751C6.28497 36.1584 6.91251 35.9243 7.56685 35.9243C8.22119 35.9243 8.84873 36.1584 9.31142 36.5751C9.77411 36.9918 10.034 37.557 10.034 38.1463C10.034 38.7355 9.77411 39.3007 9.31142 39.7174C8.84873 40.1341 8.22119 40.3682 7.56685 40.3682C6.91251 40.3682 6.28497 40.1341 5.82229 39.7174C5.3596 39.3007 5.09966 38.7355 5.09966 38.1463Z" fill="#DDC3AF"/>
</svg>
