<svg width="45" height="51" viewBox="0 0 45 51" fill="none" xmlns="http://www.w3.org/2000/svg">
<path d="M27.1391 2.50676C27.1391 1.84192 26.8792 1.20432 26.4165 0.734212C25.9538 0.264104 25.3263 0 24.6719 0C24.0176 0 23.3901 0.264104 22.9274 0.734212C22.4647 1.20432 22.2047 1.84192 22.2047 2.50676V11.496L19.0147 8.25475C18.5494 7.79812 17.9261 7.54546 17.2792 7.55117C16.6324 7.55688 16.0136 7.82051 15.5561 8.28529C15.0987 8.75006 14.8392 9.37878 14.8336 10.036C14.828 10.6933 15.0766 11.3265 15.5261 11.7993L22.9276 19.3196C23.3903 19.7895 24.0177 20.0535 24.6719 20.0535C25.3262 20.0535 25.9536 19.7895 26.4162 19.3196L33.8178 11.7993C34.2672 11.3265 34.5159 10.6933 34.5103 10.036C34.5047 9.37878 34.2452 8.75006 33.7878 8.28529C33.3303 7.82051 32.7115 7.55688 32.0646 7.55117C31.4177 7.54546 30.7945 7.79812 30.3292 8.25475L27.1391 11.496V2.50676Z" fill="#DDC3AF"/>
<path fill-rule="evenodd" clip-rule="evenodd" d="M0 2.50676C0 1.84192 0.259935 1.20432 0.722623 0.734212C1.18531 0.264104 1.81285 0 2.46719 0L6.16798 0C7.14948 0 8.09079 0.396156 8.78483 1.10132C9.47886 1.80648 9.86876 2.76289 9.86876 3.76014V25.0676H37.336L39.4997 9.67358C39.5441 9.34656 39.6517 9.03168 39.8162 8.74701C39.9807 8.46234 40.1989 8.21348 40.4583 8.01473C40.7177 7.81597 41.0132 7.67124 41.3278 7.58883C41.6424 7.50641 41.97 7.48795 42.2916 7.5345C42.6133 7.58104 42.9227 7.69168 43.2022 7.86006C43.4816 8.02844 43.7256 8.25124 43.9201 8.51568C44.1146 8.78012 44.2557 9.08098 44.3355 9.40099C44.4152 9.72101 44.432 10.0539 44.3847 10.3805L42.0681 26.8524C41.9421 27.7485 41.5023 28.5684 40.8293 29.1615C40.1562 29.7546 39.2952 30.0811 38.4043 30.0811H9.86876V35.0946H34.5407C36.1117 35.0954 37.6417 35.6041 38.9092 36.5471C40.1768 37.4901 41.1162 38.8184 41.5915 40.3398C42.0668 41.8612 42.0533 43.4968 41.553 45.0099C41.0527 46.523 40.0915 47.8351 38.8085 48.7563C37.5255 49.6775 35.9874 50.1601 34.4165 50.1342C32.8457 50.1082 31.3238 49.5751 30.071 48.6121C28.8181 47.649 27.8994 46.3058 27.4477 44.777C26.996 43.2482 27.0348 41.613 27.5585 40.1081H14.3837C14.8707 41.5105 14.9375 43.028 14.5757 44.4689C14.214 45.9098 13.4399 47.2094 12.3513 48.2034C11.2628 49.1974 9.90861 49.8412 8.46001 50.0534C7.01141 50.2656 5.5334 50.0367 4.21282 49.3956C2.89224 48.7545 1.78837 47.73 1.04075 46.4516C0.293129 45.1732 -0.0646839 43.6983 0.0125421 42.2133C0.0897681 40.7283 0.598566 39.3 1.47462 38.1087C2.35068 36.9175 3.55466 36.0169 4.93438 35.5208V5.01351H2.46719C1.81285 5.01351 1.18531 4.74941 0.722623 4.2793C0.259935 3.80919 0 3.17159 0 2.50676ZM32.0735 42.6149C32.0735 41.95 32.3334 41.3124 32.7961 40.8423C33.2588 40.3722 33.8863 40.1081 34.5407 40.1081C35.195 40.1081 35.8225 40.3722 36.2852 40.8423C36.7479 41.3124 37.0079 41.95 37.0079 42.6149C37.0079 43.2797 36.7479 43.9173 36.2852 44.3874C35.8225 44.8575 35.195 45.1216 34.5407 45.1216C33.8863 45.1216 33.2588 44.8575 32.7961 44.3874C32.3334 43.9173 32.0735 43.2797 32.0735 42.6149ZM4.93438 42.6149C4.93438 41.95 5.19432 41.3124 5.657 40.8423C6.11969 40.3722 6.74723 40.1081 7.40157 40.1081C8.05591 40.1081 8.68345 40.3722 9.14614 40.8423C9.60882 41.3124 9.86876 41.95 9.86876 42.6149C9.86876 43.2797 9.60882 43.9173 9.14614 44.3874C8.68345 44.8575 8.05591 45.1216 7.40157 45.1216C6.74723 45.1216 6.11969 44.8575 5.657 44.3874C5.19432 43.9173 4.93438 43.2797 4.93438 42.6149Z" fill="#DDC3AF"/>
</svg>
