<svg width="46" height="47" viewBox="0 0 46 47" fill="none" xmlns="http://www.w3.org/2000/svg">
<path d="M27.8741 2.34959C27.8741 1.72644 27.6125 1.12881 27.1469 0.688178C26.6813 0.247545 26.0497 0 25.3912 0C24.7327 0 24.1012 0.247545 23.6356 0.688178C23.1699 1.12881 22.9084 1.72644 22.9084 2.34959V10.7752L19.698 7.73718C19.2297 7.30919 18.6025 7.07236 17.9515 7.07772C17.3005 7.08307 16.6778 7.33017 16.2175 7.76581C15.7571 8.20144 15.496 8.79074 15.4903 9.4068C15.4847 10.0228 15.7349 10.6164 16.1872 11.0595L23.6358 18.1083C24.1014 18.5487 24.7329 18.7962 25.3912 18.7962C26.0496 18.7962 26.681 18.5487 27.1466 18.1083L34.5953 11.0595C35.0475 10.6164 35.2978 10.0228 35.2921 9.4068C35.2865 8.79074 35.0254 8.20144 34.565 7.76581C34.1047 7.33017 33.4819 7.08307 32.8309 7.07772C32.1799 7.07236 31.5527 7.30919 31.0845 7.73718L27.8741 10.7752V2.34959Z" fill="#DDC3AF"/>
<path fill-rule="evenodd" clip-rule="evenodd" d="M0.562256 2.34959C0.562256 1.72644 0.823844 1.12881 1.28947 0.688178C1.7551 0.247545 2.38663 0 3.04513 0L6.76945 0C7.7572 0 8.70449 0.371317 9.40294 1.03227C10.1014 1.69322 10.4938 2.58965 10.4938 3.52438V23.4959H38.1356L40.3131 9.06705C40.3578 8.76054 40.466 8.4654 40.6316 8.19858C40.7971 7.93176 41.0167 7.6985 41.2778 7.51221C41.5389 7.32592 41.8362 7.19026 42.1528 7.11301C42.4695 7.03577 42.7991 7.01846 43.1228 7.06209C43.4465 7.10572 43.7579 7.20942 44.0391 7.36724C44.3204 7.52506 44.5659 7.73389 44.7616 7.98175C44.9573 8.22961 45.0994 8.51161 45.1796 8.81156C45.2599 9.11151 45.2767 9.4235 45.2292 9.72963L42.8978 25.1688C42.7711 26.0087 42.3284 26.7772 41.6511 27.3331C40.9738 27.889 40.1073 28.1951 39.2107 28.195H10.4938V32.8942H35.3225C36.9035 32.895 38.4433 33.3718 39.7189 34.2556C40.9945 35.1395 41.9399 36.3845 42.4182 37.8105C42.8965 39.2365 42.8829 40.7695 42.3794 42.1878C41.8759 43.606 40.9086 44.8358 39.6175 45.6993C38.3264 46.5628 36.7784 47.0151 35.1976 46.9908C33.6168 46.9665 32.0852 46.4668 30.8244 45.5641C29.5636 44.6614 28.6391 43.4025 28.1845 41.9695C27.7299 40.5366 27.769 39.0039 28.296 37.5934H15.0374C15.5275 38.9078 15.5947 40.3302 15.2307 41.6807C14.8666 43.0313 14.0876 44.2494 12.9921 45.1811C11.8966 46.1128 10.5339 46.7162 9.07605 46.9151C7.61824 47.114 6.13084 46.8995 4.80186 46.2985C3.47289 45.6976 2.362 44.7374 1.60962 43.5391C0.857249 42.3409 0.497161 40.9584 0.574878 39.5666C0.652595 38.1747 1.16463 36.8359 2.04625 35.7193C2.92788 34.6028 4.13952 33.7586 5.52801 33.2936V4.69917H3.04513C2.38663 4.69917 1.7551 4.45163 1.28947 4.01099C0.823844 3.57036 0.562256 2.97273 0.562256 2.34959ZM32.8397 39.9429C32.8397 39.3198 33.1012 38.7222 33.5669 38.2815C34.0325 37.8409 34.664 37.5934 35.3225 37.5934C35.981 37.5934 36.6126 37.8409 37.0782 38.2815C37.5438 38.7222 37.8054 39.3198 37.8054 39.9429C37.8054 40.5661 37.5438 41.1637 37.0782 41.6044C36.6126 42.045 35.981 42.2925 35.3225 42.2925C34.664 42.2925 34.0325 42.045 33.5669 41.6044C33.1012 41.1637 32.8397 40.5661 32.8397 39.9429ZM5.52801 39.9429C5.52801 39.3198 5.7896 38.7222 6.25523 38.2815C6.72086 37.8409 7.35239 37.5934 8.01089 37.5934C8.66939 37.5934 9.30092 37.8409 9.76655 38.2815C10.2322 38.7222 10.4938 39.3198 10.4938 39.9429C10.4938 40.5661 10.2322 41.1637 9.76655 41.6044C9.30092 42.045 8.66939 42.2925 8.01089 42.2925C7.35239 42.2925 6.72086 42.045 6.25523 41.6044C5.7896 41.1637 5.52801 40.5661 5.52801 39.9429Z" fill="#DDC3AF"/>
</svg>
