<svg width="45" height="45" viewBox="0 0 45 45" fill="none" xmlns="http://www.w3.org/2000/svg">
<path d="M27.1391 2.76735C27.1391 2.17805 26.8792 1.6129 26.4165 1.1962C25.9538 0.779507 25.3263 0.54541 24.6719 0.54541C24.0176 0.54541 23.3901 0.779507 22.9274 1.1962C22.4647 1.6129 22.2047 2.17805 22.2047 2.76735V10.7352L19.0147 7.86225C18.5494 7.45751 17.9261 7.23355 17.2792 7.23861C16.6324 7.24368 16.0136 7.47736 15.5561 7.88932C15.0987 8.30129 14.8392 8.85858 14.8336 9.44116C14.828 10.0237 15.0766 10.585 15.5261 11.0041L22.9276 17.6699C23.3903 18.0864 24.0177 18.3204 24.6719 18.3204C25.3261 18.3204 25.9536 18.0864 26.4162 17.6699L33.8178 11.0041C34.2672 10.585 34.5159 10.0237 34.5103 9.44116C34.5047 8.85858 34.2452 8.30129 33.7878 7.88932C33.3303 7.47736 32.7115 7.24368 32.0646 7.23861C31.4177 7.23355 30.7945 7.45751 30.3292 7.86225L27.1391 10.7352V2.76735Z" fill="#DDC3AF"/>
<path fill-rule="evenodd" clip-rule="evenodd" d="M0 2.76735C0 2.17805 0.259935 1.6129 0.722623 1.1962C1.18531 0.779507 1.81285 0.54541 2.46719 0.54541L6.16797 0.54541C7.14948 0.54541 8.09079 0.896555 8.78483 1.5216C9.47886 2.14664 9.86876 2.99438 9.86876 3.87832V22.7648H37.336L39.4997 9.11987C39.5441 8.83001 39.6517 8.55091 39.8162 8.29858C39.9807 8.04626 40.1989 7.82567 40.4583 7.6495C40.7177 7.47333 41.0132 7.34504 41.3278 7.27199C41.6424 7.19894 41.97 7.18258 42.2916 7.22384C42.6133 7.26509 42.9227 7.36316 43.2022 7.51241C43.4816 7.66166 43.7256 7.85914 43.9201 8.09354C44.1146 8.32793 44.2557 8.5946 44.3355 8.87826C44.4152 9.16191 44.432 9.45696 44.3847 9.74646L42.0681 24.3468C41.9421 25.1411 41.5023 25.8679 40.8293 26.3936C40.1562 26.9193 39.2952 27.2087 38.4043 27.2087H9.86876V31.6526H34.5407C36.1117 31.6533 37.6417 32.1042 38.9092 32.94C40.1768 33.7758 41.1162 34.9532 41.5915 36.3018C42.0668 37.6503 42.0533 39.1001 41.553 40.4412C41.0527 41.7824 40.0915 42.9454 38.8085 43.762C37.5255 44.5786 35.9874 45.0063 34.4165 44.9833C32.8457 44.9603 31.3238 44.4878 30.071 43.6342C28.8181 42.7805 27.8994 41.59 27.4477 40.2349C26.996 38.8798 27.0348 37.4304 27.5585 36.0964H14.3837C14.8707 37.3394 14.9375 38.6845 14.5757 39.9617C14.214 41.2389 13.4399 42.3909 12.3513 43.272C11.2628 44.153 9.90861 44.7237 8.46001 44.9118C7.0114 45.0999 5.5334 44.8969 4.21282 44.3287C2.89224 43.7604 1.78837 42.8523 1.04075 41.7192C0.293129 40.586 -0.0646839 39.2787 0.0125421 37.9624C0.0897681 36.6462 0.598566 35.3801 1.47462 34.3242C2.35068 33.2683 3.55466 32.47 4.93438 32.0303V4.98929H2.46719C1.81285 4.98929 1.18531 4.75519 0.722623 4.3385C0.259935 3.9218 0 3.35664 0 2.76735ZM32.0735 38.3184C32.0735 37.7291 32.3334 37.1639 32.7961 36.7472C33.2588 36.3305 33.8863 36.0964 34.5407 36.0964C35.195 36.0964 35.8225 36.3305 36.2852 36.7472C36.7479 37.1639 37.0079 37.7291 37.0079 38.3184C37.0079 38.9077 36.7479 39.4728 36.2852 39.8895C35.8225 40.3062 35.195 40.5403 34.5407 40.5403C33.8863 40.5403 33.2588 40.3062 32.7961 39.8895C32.3334 39.4728 32.0735 38.9077 32.0735 38.3184ZM4.93438 38.3184C4.93438 37.7291 5.19432 37.1639 5.657 36.7472C6.11969 36.3305 6.74723 36.0964 7.40157 36.0964C8.05591 36.0964 8.68345 36.3305 9.14614 36.7472C9.60882 37.1639 9.86876 37.7291 9.86876 38.3184C9.86876 38.9077 9.60882 39.4728 9.14614 39.8895C8.68345 40.3062 8.05591 40.5403 7.40157 40.5403C6.74723 40.5403 6.11969 40.3062 5.657 39.8895C5.19432 39.4728 4.93438 38.9077 4.93438 38.3184Z" fill="#DDC3AF"/>
</svg>
