<svg width="46" height="48" viewBox="0 0 46 48" fill="none" xmlns="http://www.w3.org/2000/svg">
<path d="M28.0151 2.38382C28.0151 1.75159 27.7534 1.14526 27.2875 0.698215C26.8216 0.251165 26.1897 1.52588e-05 25.5308 1.52588e-05C24.8719 1.52588e-05 24.24 0.251165 23.7741 0.698215C23.3082 1.14526 23.0465 1.75159 23.0465 2.38382V10.9321L19.8342 7.84987C19.3657 7.41565 18.7381 7.17537 18.0868 7.1808C17.4354 7.18624 16.8123 7.43694 16.3517 7.87891C15.8911 8.32089 15.6298 8.91878 15.6241 9.5438C15.6185 10.1688 15.8689 10.771 16.3214 11.2206L23.7744 18.372C24.2403 18.8189 24.872 19.0699 25.5308 19.0699C26.1895 19.0699 26.8213 18.8189 27.2872 18.372L34.7402 11.2206C35.1927 10.771 35.4431 10.1688 35.4375 9.5438C35.4318 8.91878 35.1705 8.32089 34.7099 7.87891C34.2493 7.43694 33.6262 7.18624 32.9748 7.1808C32.3234 7.17537 31.6959 7.41565 31.2273 7.84987L28.0151 10.9321V2.38382Z" fill="#DDC3AF"/>
<path fill-rule="evenodd" clip-rule="evenodd" d="M0.6875 2.3838C0.6875 1.75158 0.94924 1.14525 1.41514 0.698199C1.88104 0.25115 2.51294 0 3.17182 0L6.89831 0C7.88663 0 8.83448 0.376725 9.53333 1.0473C10.2322 1.71787 10.6248 2.62737 10.6248 3.5757V23.838H38.2828L40.4615 9.19909C40.5062 8.88812 40.6145 8.58868 40.7802 8.31797C40.9458 8.04726 41.1655 7.81061 41.4268 7.62161C41.688 7.4326 41.9855 7.29497 42.3023 7.2166C42.6191 7.13823 42.9489 7.12067 43.2728 7.16493C43.5967 7.2092 43.9083 7.31441 44.1897 7.47453C44.4711 7.63465 44.7168 7.84652 44.9126 8.09799C45.1084 8.34945 45.2506 8.63556 45.3309 8.93988C45.4112 9.2442 45.428 9.56074 45.3805 9.87132L43.0477 25.5353C42.9209 26.3874 42.478 27.1671 41.8003 27.7311C41.1226 28.2952 40.2556 28.6057 39.3585 28.6056H10.6248V33.3732H35.468C37.0499 33.374 38.5906 33.8578 39.867 34.7545C41.1433 35.6512 42.0893 36.9143 42.5678 38.3611C43.0464 39.8079 43.0328 41.3633 42.529 42.8021C42.0252 44.241 41.0574 45.4888 39.7655 46.3648C38.4736 47.2409 36.9248 47.6998 35.3431 47.6751C33.7613 47.6504 32.2288 47.1435 30.9673 46.2277C29.7058 45.3118 28.7806 44.0346 28.3258 42.5807C27.871 41.1269 27.9101 39.5719 28.4374 38.1408H15.1711C15.6614 39.4744 15.7287 40.9175 15.3644 42.2877C15.0002 43.658 14.2207 44.8938 13.1246 45.8391C12.0285 46.7843 10.6649 47.3965 9.20626 47.5983C7.7476 47.8001 6.25933 47.5824 4.92958 46.9728C3.59983 46.3631 2.48829 45.3889 1.73548 44.1732C0.982665 42.9575 0.622367 41.5549 0.700129 40.1428C0.777891 38.7306 1.29022 37.3723 2.17236 36.2395C3.0545 35.1067 4.26684 34.2503 5.65615 33.7785V4.7676H3.17182C2.51294 4.7676 1.88104 4.51645 1.41514 4.0694C0.94924 3.62235 0.6875 3.01603 0.6875 2.3838ZM32.9837 40.5246C32.9837 39.8924 33.2454 39.2861 33.7113 38.839C34.1772 38.392 34.8091 38.1408 35.468 38.1408C36.1269 38.1408 36.7588 38.392 37.2247 38.839C37.6906 39.2861 37.9523 39.8924 37.9523 40.5246C37.9523 41.1569 37.6906 41.7632 37.2247 42.2102C36.7588 42.6573 36.1269 42.9084 35.468 42.9084C34.8091 42.9084 34.1772 42.6573 33.7113 42.2102C33.2454 41.7632 32.9837 41.1569 32.9837 40.5246ZM5.65615 40.5246C5.65615 39.8924 5.91789 39.2861 6.38379 38.839C6.84969 38.392 7.48159 38.1408 8.14047 38.1408C8.79935 38.1408 9.43125 38.392 9.89715 38.839C10.3631 39.2861 10.6248 39.8924 10.6248 40.5246C10.6248 41.1569 10.3631 41.7632 9.89715 42.2102C9.43125 42.6573 8.79935 42.9084 8.14047 42.9084C7.48159 42.9084 6.84969 42.6573 6.38379 42.2102C5.91789 41.7632 5.65615 41.1569 5.65615 40.5246Z" fill="#DDC3AF"/>
</svg>
