<svg width="45" height="49" viewBox="0 0 45 49" fill="none" xmlns="http://www.w3.org/2000/svg">
<path d="M27.1233 2.44467C27.1233 1.7963 26.8635 1.17449 26.4011 0.716027C25.9387 0.257563 25.3115 0 24.6575 0C24.0036 0 23.3764 0.257563 22.914 0.716027C22.4516 1.17449 22.1918 1.7963 22.1918 2.44467V11.2112L19.0036 8.05029C18.5385 7.60498 17.9157 7.35857 17.2692 7.36414C16.6226 7.36971 16.0042 7.62681 15.547 8.08007C15.0899 8.53333 14.8305 9.14649 14.8249 9.78747C14.8193 10.4285 15.0678 11.046 15.517 11.5071L22.9143 18.8411C23.3767 19.2994 24.0037 19.5568 24.6575 19.5568C25.3114 19.5568 25.9384 19.2994 26.4008 18.8411L33.7981 11.5071C34.2472 11.046 34.4958 10.4285 34.4902 9.78747C34.4845 9.14649 34.2252 8.53333 33.7681 8.08007C33.3109 7.62681 32.6924 7.36971 32.0459 7.36414C31.3994 7.35857 30.7766 7.60498 30.3115 8.05029L27.1233 11.2112V2.44467Z" fill="#DDC3AF"/>
<path fill-rule="evenodd" clip-rule="evenodd" d="M0 2.44467C0 1.7963 0.259784 1.17449 0.722202 0.716027C1.18462 0.257563 1.8118 0 2.46575 0L6.16438 0C7.14532 0 8.08608 0.386344 8.77971 1.07404C9.47334 1.76174 9.86301 2.69445 9.86301 3.667V24.4467H37.3142L39.4767 9.43397C39.5211 9.11506 39.6286 8.80798 39.793 8.53036C39.9574 8.25274 40.1755 8.01005 40.4347 7.81621C40.694 7.62238 40.9893 7.48123 41.3038 7.40086C41.6182 7.32049 41.9455 7.30249 42.267 7.34788C42.5885 7.39327 42.8977 7.50117 43.177 7.66538C43.4563 7.82959 43.7002 8.04687 43.8945 8.30476C44.0889 8.56264 44.23 8.85605 44.3097 9.16814C44.3894 9.48023 44.4061 9.80485 44.3589 10.1234L42.0436 26.1873C41.9177 27.0612 41.4781 27.8608 40.8055 28.4392C40.1328 29.0176 39.2723 29.3361 38.3819 29.336H9.86301V34.2254H34.5205C36.0906 34.2262 37.6198 34.7223 38.8866 35.6419C40.1534 36.5615 41.0923 37.8569 41.5673 39.3406C42.0423 40.8243 42.0288 42.4194 41.5288 43.895C41.0287 45.3706 40.0681 46.6502 38.7859 47.5487C37.5037 48.4471 35.9664 48.9177 34.3965 48.8924C32.8266 48.8671 31.3056 48.3472 30.0535 47.408C28.8014 46.4688 27.8832 45.1589 27.4317 43.668C26.9803 42.177 27.0191 40.5823 27.5425 39.1147H14.3753C14.862 40.4823 14.9288 41.9622 14.5672 43.3675C14.2057 44.7727 13.4321 46.0401 12.3441 47.0095C11.2562 47.9789 9.90284 48.6067 8.45508 48.8137C7.00732 49.0206 5.53018 48.7974 4.21037 48.1722C2.89056 47.5469 1.78733 46.5478 1.04015 45.3011C0.292958 44.0543 -0.0646462 42.616 0.0125348 41.1678C0.0897158 39.7196 0.598218 38.3265 1.47376 37.1648C2.34931 36.0031 3.55259 35.1248 4.93151 34.6409V4.88934H2.46575C1.8118 4.88934 1.18462 4.63177 0.722202 4.17331C0.259784 3.71485 0 3.09303 0 2.44467ZM32.0548 41.5594C32.0548 40.911 32.3146 40.2892 32.777 39.8307C33.2394 39.3723 33.8666 39.1147 34.5205 39.1147C35.1745 39.1147 35.8017 39.3723 36.2641 39.8307C36.7265 40.2892 36.9863 40.911 36.9863 41.5594C36.9863 42.2077 36.7265 42.8295 36.2641 43.288C35.8017 43.7465 35.1745 44.004 34.5205 44.004C33.8666 44.004 33.2394 43.7465 32.777 43.288C32.3146 42.8295 32.0548 42.2077 32.0548 41.5594ZM4.93151 41.5594C4.93151 40.911 5.19129 40.2892 5.65371 39.8307C6.11613 39.3723 6.7433 39.1147 7.39726 39.1147C8.05122 39.1147 8.67839 39.3723 9.14081 39.8307C9.60323 40.2892 9.86301 40.911 9.86301 41.5594C9.86301 42.2077 9.60323 42.8295 9.14081 43.288C8.67839 43.7465 8.05122 44.004 7.39726 44.004C6.7433 44.004 6.11613 43.7465 5.65371 43.288C5.19129 42.8295 4.93151 42.2077 4.93151 41.5594Z" fill="#DDC3AF"/>
</svg>
