<svg width="10" height="11" viewBox="0 0 10 11" fill="none" xmlns="http://www.w3.org/2000/svg">
<path d="M5.98006 0.774433C5.98006 0.642694 5.92345 0.516351 5.82267 0.423197C5.72189 0.330043 5.58521 0.27771 5.44269 0.27771C5.30017 0.27771 5.16349 0.330043 5.06271 0.423197C4.96194 0.516351 4.90532 0.642694 4.90532 0.774433V2.55568L4.2105 1.91342C4.10915 1.82294 3.97341 1.77287 3.83251 1.774C3.69161 1.77513 3.55683 1.82737 3.4572 1.91947C3.35756 2.01157 3.30105 2.13615 3.29983 2.26639C3.2986 2.39663 3.35276 2.5221 3.45065 2.61579L5.06277 4.10596C5.16354 4.19908 5.3002 4.25139 5.44269 4.25139C5.58518 4.25139 5.72184 4.19908 5.82261 4.10596L7.43473 2.61579C7.53262 2.5221 7.58678 2.39663 7.58556 2.26639C7.58433 2.13615 7.52782 2.01157 7.42819 1.91947C7.32855 1.82737 7.19377 1.77513 7.05288 1.774C6.91198 1.77287 6.77624 1.82294 6.67489 1.91342L5.98006 2.55568V0.774433Z" fill="#DDC3AF"/>
<path fill-rule="evenodd" clip-rule="evenodd" d="M0.0693359 0.774433C0.0693359 0.642694 0.125952 0.516351 0.226729 0.423197C0.327506 0.330043 0.464188 0.27771 0.606708 0.27771H1.41277C1.62655 0.27771 1.83157 0.35621 1.98274 0.49594C2.1339 0.635671 2.21883 0.825186 2.21883 1.0228V5.24494H8.20139L8.67267 2.19457C8.68234 2.12977 8.70576 2.06737 8.74159 2.01096C8.77742 1.95455 8.82495 1.90524 8.88146 1.86586C8.93796 1.82647 9.00232 1.79779 9.07084 1.78146C9.13937 1.76513 9.21071 1.76148 9.28077 1.7707C9.35083 1.77992 9.41823 1.80185 9.47909 1.83521C9.53996 1.86858 9.5931 1.91272 9.63546 1.96512C9.67782 2.01752 9.70857 2.07714 9.72593 2.14055C9.7433 2.20396 9.74695 2.26992 9.73667 2.33464L9.23207 5.59861C9.20465 5.77618 9.10884 5.93864 8.96225 6.05617C8.81566 6.1737 8.62812 6.2384 8.43408 6.23839H2.21883V7.23184H7.59255C7.93473 7.232 8.26797 7.33281 8.54406 7.51966C8.82015 7.70651 9.02476 7.96971 9.12828 8.27119C9.2318 8.57266 9.22886 8.89676 9.11988 9.19658C9.01091 9.49641 8.80156 9.75641 8.52212 9.93895C8.24268 10.1215 7.90765 10.2171 7.56552 10.212C7.22338 10.2068 6.89189 10.1012 6.61902 9.91037C6.34614 9.71953 6.14603 9.45339 6.04766 9.15045C5.94928 8.84751 5.95773 8.52349 6.07179 8.22528H3.20222C3.30828 8.50316 3.32283 8.80387 3.24404 9.08939C3.16524 9.37491 2.99664 9.63243 2.75955 9.8294C2.52245 10.0264 2.22751 10.1539 1.91199 10.196C1.59647 10.238 1.27455 10.1927 0.98692 10.0656C0.699288 9.9386 0.458857 9.73559 0.296019 9.48227C0.133182 9.22895 0.0552473 8.93669 0.0720677 8.64244C0.0888881 8.34818 0.199708 8.06514 0.390519 7.8291C0.581331 7.59305 0.843567 7.41459 1.14408 7.31628V1.27116H0.606708C0.464188 1.27116 0.327506 1.21882 0.226729 1.12567C0.125952 1.03252 0.0693359 0.906173 0.0693359 0.774433ZM7.05518 8.72201C7.05518 8.59027 7.11179 8.46392 7.21257 8.37077C7.31335 8.27762 7.45003 8.22528 7.59255 8.22528C7.73507 8.22528 7.87175 8.27762 7.97253 8.37077C8.07331 8.46392 8.12992 8.59027 8.12992 8.72201C8.12992 8.85375 8.07331 8.98009 7.97253 9.07325C7.87175 9.1664 7.73507 9.21873 7.59255 9.21873C7.45003 9.21873 7.31335 9.1664 7.21257 9.07325C7.11179 8.98009 7.05518 8.85375 7.05518 8.72201ZM1.14408 8.72201C1.14408 8.59027 1.2007 8.46392 1.30147 8.37077C1.40225 8.27762 1.53893 8.22528 1.68145 8.22528C1.82397 8.22528 1.96066 8.27762 2.06143 8.37077C2.16221 8.46392 2.21883 8.59027 2.21883 8.72201C2.21883 8.85375 2.16221 8.98009 2.06143 9.07325C1.96066 9.1664 1.82397 9.21873 1.68145 9.21873C1.53893 9.21873 1.40225 9.1664 1.30147 9.07325C1.2007 8.98009 1.14408 8.85375 1.14408 8.72201Z" fill="#DDC3AF"/>
</svg>
