<svg width="46" height="42" viewBox="0 0 46 42" fill="none" xmlns="http://www.w3.org/2000/svg">
<path d="M28.0066 2.46004C28.0066 1.91534 27.7467 1.39295 27.284 1.00779C26.8214 0.622631 26.1938 0.40625 25.5395 0.40625C24.8852 0.40625 24.2577 0.622631 23.795 1.00779C23.3323 1.39295 23.0724 1.91534 23.0724 2.46004V9.82494L19.8824 7.16939C19.4171 6.79527 18.794 6.58826 18.1471 6.59294C17.5002 6.59762 16.8814 6.81362 16.424 7.19441C15.9666 7.57519 15.7071 8.09031 15.7015 8.62881C15.6959 9.16731 15.9446 9.6861 16.394 10.0734L23.7953 16.2348C24.2579 16.6199 24.8853 16.8361 25.5395 16.8361C26.1937 16.8361 26.8211 16.6199 27.2838 16.2348L34.6851 10.0734C35.1345 9.6861 35.3832 9.16731 35.3775 8.62881C35.3719 8.09031 35.1125 7.57519 34.655 7.19441C34.1976 6.81362 33.5788 6.59762 32.932 6.59294C32.2851 6.58826 31.6619 6.79527 31.1966 7.16939L28.0066 9.82494V2.46004Z" fill="#DDC3AF"/>
<path fill-rule="evenodd" clip-rule="evenodd" d="M0.868652 2.46004C0.868652 1.91534 1.12858 1.39295 1.59125 1.00779C2.05392 0.622631 2.68144 0.40625 3.33576 0.40625L7.03642 0.40625C8.01789 0.40625 8.95917 0.730822 9.65318 1.30856C10.3472 1.8863 10.7371 2.66989 10.7371 3.48694V20.9442H38.2034L40.367 8.33183C40.4114 8.06391 40.519 7.80593 40.6835 7.5727C40.8479 7.33946 41.0662 7.13558 41.3256 6.97274C41.585 6.8099 41.8805 6.69131 42.1951 6.62379C42.5097 6.55627 42.8372 6.54115 43.1588 6.57928C43.4805 6.61742 43.7899 6.70806 44.0694 6.84602C44.3488 6.98397 44.5928 7.16651 44.7872 7.38317C44.9817 7.59982 45.1229 7.84632 45.2026 8.10851C45.2823 8.3707 45.2991 8.64341 45.2519 8.911L42.9353 22.4065C42.8094 23.1407 42.3695 23.8124 41.6965 24.2983C41.0235 24.7843 40.1625 25.0518 39.2716 25.0518H10.7371V29.1593H35.4081C36.9791 29.16 38.509 29.5768 39.7766 30.3494C41.0441 31.1219 41.9835 32.2102 42.4587 33.4567C42.934 34.7032 42.9205 36.0433 42.4202 37.2829C41.9199 38.5226 40.9587 39.5976 39.6758 40.3524C38.3929 41.1072 36.8548 41.5025 35.284 41.4813C33.7133 41.46 32.1914 41.0233 30.9386 40.2342C29.6858 39.4452 28.7671 38.3447 28.3154 37.0922C27.8638 35.8396 27.9026 34.4999 28.4262 33.2669H15.2519C15.7388 34.4159 15.8056 35.6592 15.4439 36.8397C15.0821 38.0203 14.3081 39.085 13.2196 39.8994C12.131 40.7138 10.7769 41.2413 9.32837 41.4152C7.87982 41.589 6.40186 41.4015 5.08133 40.8762C3.7608 40.3509 2.65697 39.5116 1.90937 38.4642C1.16177 37.4168 0.803971 36.2084 0.881194 34.9917C0.958417 33.7751 1.4672 32.6048 2.34322 31.6288C3.21925 30.6528 4.42319 29.915 5.80286 29.5085V4.51383H3.33576C2.68144 4.51383 2.05392 4.29745 1.59125 3.91229C1.12858 3.52713 0.868652 3.00474 0.868652 2.46004ZM32.941 35.3207C32.941 34.776 33.201 34.2536 33.6636 33.8685C34.1263 33.4833 34.7538 33.2669 35.4081 33.2669C36.0624 33.2669 36.69 33.4833 37.1526 33.8685C37.6153 34.2536 37.8752 34.776 37.8752 35.3207C37.8752 35.8654 37.6153 36.3878 37.1526 36.773C36.69 37.1581 36.0624 37.3745 35.4081 37.3745C34.7538 37.3745 34.1263 37.1581 33.6636 36.773C33.201 36.3878 32.941 35.8654 32.941 35.3207ZM5.80286 35.3207C5.80286 34.776 6.06279 34.2536 6.52546 33.8685C6.98813 33.4833 7.61565 33.2669 8.26997 33.2669C8.92429 33.2669 9.5518 33.4833 10.0145 33.8685C10.4771 34.2536 10.7371 34.776 10.7371 35.3207C10.7371 35.8654 10.4771 36.3878 10.0145 36.773C9.5518 37.1581 8.92429 37.3745 8.26997 37.3745C7.61565 37.3745 6.98813 37.1581 6.52546 36.773C6.06279 36.3878 5.80286 35.8654 5.80286 35.3207Z" fill="#DDC3AF"/>
</svg>
