<svg width="24" height="24" viewBox="0 0 24 24" fill="none" xmlns="http://www.w3.org/2000/svg">
<path d="M13.5684 18.5341H18.3924V5.0269H4.88517V18.5341H11.6388V13.7101H9.70919V11.7805H11.6388V10.1847C11.6388 8.89479 11.7739 8.42686 12.0247 7.95507C12.2718 7.48829 12.6538 7.10671 13.1207 6.86002C13.4893 6.66224 13.9476 6.54357 14.7484 6.49243C15.0658 6.47217 15.4768 6.49726 15.9814 6.56962V8.40274H15.498C14.6133 8.40274 14.2476 8.44423 14.0296 8.56097C13.8994 8.62789 13.7936 8.73382 13.7266 8.86392C13.6109 9.08196 13.5684 9.29808 13.5684 10.1838V11.7805H15.9804L15.498 13.7101H13.5684V18.5341ZM3.92037 3.09729H19.3572C19.6131 3.09729 19.8585 3.19894 20.0394 3.37987C20.2203 3.56081 20.322 3.80621 20.322 4.06209V19.4989C20.322 19.7548 20.2203 20.0003 20.0394 20.1812C19.8585 20.3621 19.6131 20.4637 19.3572 20.4637H3.92037C3.66448 20.4637 3.41909 20.3621 3.23815 20.1812C3.05722 20.0003 2.95557 19.7548 2.95557 19.4989V4.06209C2.95557 3.80621 3.05722 3.56081 3.23815 3.37987C3.41909 3.19894 3.66448 3.09729 3.92037 3.09729Z" fill="black" fill-opacity="0.6"/>
</svg>
