<svg width="24" height="24" viewBox="0 0 24 24" fill="none" xmlns="http://www.w3.org/2000/svg">
<path d="M17.1896 14.5577L15.8254 13.1935L17.1896 11.8293C17.5481 11.4709 17.8323 11.0454 18.0262 10.5772C18.2202 10.109 18.32 9.60715 18.32 9.10033C18.32 8.59352 18.2202 8.09167 18.0262 7.62343C17.8323 7.1552 17.5481 6.72975 17.1896 6.37139C16.8313 6.01301 16.4058 5.72874 15.9376 5.53479C15.4694 5.34084 14.9675 5.24101 14.4607 5.24101C13.9539 5.24101 13.4521 5.34084 12.9838 5.53479C12.5156 5.72874 12.0902 6.01301 11.7318 6.37139L10.3675 7.73562L9.0033 6.37139L10.3675 5.00716C11.4561 3.93615 12.9239 3.33867 14.451 3.3449C15.978 3.35111 17.4409 3.96051 18.5207 5.04036C19.6005 6.12019 20.21 7.58299 20.2161 9.1101C20.2224 10.6372 19.6249 12.1049 18.5539 13.1935L17.1896 14.5577ZM14.4602 17.2871L13.096 18.6514C12.56 19.1961 11.9216 19.6294 11.2174 19.9261C10.5132 20.2228 9.75722 20.3772 8.99305 20.3803C8.2289 20.3835 7.47168 20.2352 6.76509 19.9442C6.05851 19.6532 5.41652 19.2252 4.87617 18.6849C4.33582 18.1446 3.90781 17.5026 3.61681 16.796C3.32582 16.0893 3.17761 15.3322 3.18071 14.5679C3.18383 13.8038 3.33821 13.0478 3.63494 12.3437C3.93169 11.6395 4.36491 11.001 4.90964 10.465L6.27387 9.10082L7.6381 10.465L6.27387 11.8293C5.9155 12.1877 5.63123 12.6131 5.43728 13.0814C5.24334 13.5496 5.14351 14.0514 5.14351 14.5582C5.14351 15.065 5.24334 15.5669 5.43728 16.0351C5.63123 16.5033 5.9155 16.9288 6.27387 17.2871C6.63225 17.6456 7.0577 17.9298 7.52593 18.1237C7.99415 18.3177 8.49601 18.4175 9.00282 18.4175C9.50963 18.4175 10.0115 18.3177 10.4797 18.1237C10.9479 17.9298 11.3734 17.6456 11.7318 17.2871L13.096 15.9229L14.4602 17.2871ZM14.4602 7.73562L15.8254 9.10082L9.0033 15.9219L7.6381 14.5577L14.4602 7.73562Z" fill="black" fill-opacity="0.6"/>
</svg>
