<svg width="24" height="24" viewBox="0 0 24 24" fill="none" xmlns="http://www.w3.org/2000/svg">
<path d="M17.1896 14.508L15.8254 13.1438L17.1896 11.7796C17.5481 11.4212 17.8323 10.9958 18.0262 10.5275C18.2202 10.0593 18.32 9.55746 18.32 9.05065C18.32 8.54384 18.2202 8.04199 18.0262 7.57375C17.8323 7.10552 17.5481 6.68007 17.1896 6.32171C16.8313 5.96333 16.4058 5.67906 15.9376 5.48511C15.4694 5.29116 14.9675 5.19133 14.4607 5.19133C13.9539 5.19133 13.4521 5.29116 12.9838 5.48511C12.5156 5.67906 12.0902 5.96333 11.7318 6.32171L10.3675 7.68594L9.0033 6.32171L10.3675 4.95747C11.4561 3.88646 12.9239 3.28899 14.451 3.29521C15.978 3.30143 17.4409 3.91083 18.5207 4.99067C19.6005 6.07051 20.21 7.53331 20.2161 9.06042C20.2224 10.5876 19.6249 12.0552 18.5539 13.1438L17.1896 14.508ZM14.4602 17.2375L13.096 18.6017C12.56 19.1464 11.9216 19.5797 11.2174 19.8764C10.5132 20.1732 9.75722 20.3275 8.99305 20.3306C8.2289 20.3338 7.47168 20.1855 6.76509 19.8945C6.05851 19.6035 5.41652 19.1756 4.87617 18.6352C4.33582 18.0949 3.90781 17.4529 3.61681 16.7463C3.32582 16.0397 3.17761 15.2825 3.18071 14.5183C3.18383 13.7541 3.33821 12.9981 3.63494 12.294C3.93169 11.5898 4.36491 10.9513 4.90964 10.4153L6.27387 9.05113L7.6381 10.4153L6.27387 11.7796C5.9155 12.138 5.63123 12.5634 5.43728 13.0317C5.24334 13.4999 5.14351 14.0017 5.14351 14.5085C5.14351 15.0153 5.24334 15.5172 5.43728 15.9854C5.63123 16.4537 5.9155 16.8791 6.27387 17.2375C6.63225 17.5959 7.0577 17.8801 7.52593 18.074C7.99415 18.2681 8.49601 18.3678 9.00282 18.3678C9.50963 18.3678 10.0115 18.2681 10.4797 18.074C10.9479 17.8801 11.3734 17.5959 11.7318 17.2375L13.096 15.8732L14.4602 17.2375ZM14.4602 7.68594L15.8254 9.05113L9.0033 15.8723L7.6381 14.508L14.4602 7.68594Z" fill="black" fill-opacity="0.6"/>
</svg>
