<svg width="24" height="24" viewBox="0 0 24 24" fill="none" xmlns="http://www.w3.org/2000/svg">
<path d="M14.0962 18.5341H18.9203V5.0269H5.413V18.5341H12.1666V13.7101H10.237V11.7805H12.1666V10.1847C12.1666 8.89479 12.3017 8.42686 12.5525 7.95507C12.7996 7.48829 13.1816 7.10671 13.6486 6.86002C14.0171 6.66224 14.4754 6.54357 15.2762 6.49243C15.5936 6.47217 16.0046 6.49726 16.5092 6.56962V8.40274H16.0258C15.1411 8.40274 14.7755 8.44423 14.5574 8.56097C14.4273 8.62789 14.3214 8.73382 14.2545 8.86392C14.1387 9.08196 14.0962 9.29808 14.0962 10.1838V11.7805H16.5082L16.0258 13.7101H14.0962V18.5341ZM4.4482 3.09729H19.8851C20.1409 3.09729 20.3864 3.19894 20.5673 3.37987C20.7482 3.56081 20.8499 3.80621 20.8499 4.06209V19.4989C20.8499 19.7548 20.7482 20.0003 20.5673 20.1812C20.3864 20.3621 20.1409 20.4637 19.8851 20.4637H4.4482C4.19232 20.4637 3.94692 20.3621 3.76598 20.1812C3.58505 20.0003 3.4834 19.7548 3.4834 19.4989V4.06209C3.4834 3.80621 3.58505 3.56081 3.76598 3.37987C3.94692 3.19894 4.19232 3.09729 4.4482 3.09729Z" fill="black" fill-opacity="0.6"/>
</svg>
