<svg width="24" height="24" viewBox="0 0 24 24" fill="none" xmlns="http://www.w3.org/2000/svg">
<path d="M17.6618 14.5577L16.2976 13.1935L17.6618 11.8293C18.0202 11.4709 18.3045 11.0454 18.4984 10.5772C18.6924 10.109 18.7922 9.60715 18.7922 9.10033C18.7922 8.59352 18.6924 8.09167 18.4984 7.62343C18.3045 7.1552 18.0202 6.72975 17.6618 6.37139C17.3035 6.01301 16.878 5.72874 16.4098 5.53479C15.9416 5.34084 15.4397 5.24101 14.9329 5.24101C14.4261 5.24101 13.9243 5.34084 13.4559 5.53479C12.9877 5.72874 12.5623 6.01301 12.2039 6.37139L10.8397 7.73562L9.47547 6.37139L10.8397 5.00716C11.9283 3.93615 13.396 3.33867 14.9231 3.3449C16.4502 3.35111 17.913 3.96051 18.9929 5.04036C20.0727 6.12019 20.6821 7.58299 20.6883 9.1101C20.6946 10.6372 20.0971 12.1049 19.026 13.1935L17.6618 14.5577ZM14.9324 17.2871L13.5682 18.6514C13.0322 19.1961 12.3938 19.6294 11.6896 19.9261C10.9854 20.2228 10.2294 20.3772 9.46522 20.3803C8.70107 20.3835 7.94385 20.2352 7.23726 19.9442C6.53068 19.6532 5.88869 19.2252 5.34834 18.6849C4.80799 18.1446 4.37997 17.5026 4.08898 16.796C3.79799 16.0893 3.64977 15.3322 3.65288 14.5679C3.656 13.8038 3.81037 13.0478 4.10711 12.3437C4.40385 11.6395 4.83708 11.001 5.38181 10.465L6.74604 9.10082L8.11027 10.465L6.74604 11.8293C6.38767 12.1877 6.10339 12.6131 5.90945 13.0814C5.7155 13.5496 5.61568 14.0514 5.61568 14.5582C5.61568 15.065 5.7155 15.5669 5.90945 16.0351C6.10339 16.5033 6.38767 16.9288 6.74604 17.2871C7.10442 17.6456 7.52986 17.9298 7.99809 18.1237C8.46632 18.3177 8.96817 18.4175 9.47499 18.4175C9.9818 18.4175 10.4837 18.3177 10.9519 18.1237C11.4201 17.9298 11.8456 17.6456 12.2039 17.2871L13.5682 15.9229L14.9324 17.2871ZM14.9324 7.73562L16.2976 9.10082L9.47547 15.9219L8.11027 14.5577L14.9324 7.73562Z" fill="black" fill-opacity="0.6"/>
</svg>
