<svg width="24" height="24" viewBox="0 0 24 24" fill="none" xmlns="http://www.w3.org/2000/svg">
<path d="M14.0962 18.5839H18.9203V5.07661H5.413V18.5839H12.1666V13.7598H10.237V11.8302H12.1666V10.2344C12.1666 8.94451 12.3017 8.47658 12.5525 8.00479C12.7996 7.53801 13.1816 7.15643 13.6486 6.90974C14.0171 6.71195 14.4754 6.59328 15.2762 6.54215C15.5936 6.52189 16.0046 6.54697 16.5092 6.61933V8.45246H16.0258C15.1411 8.45246 14.7755 8.49394 14.5574 8.61068C14.4273 8.6776 14.3214 8.78353 14.2545 8.91363C14.1387 9.13168 14.0962 9.34779 14.0962 10.2335V11.8302H16.5082L16.0258 13.7598H14.0962V18.5839ZM4.4482 3.147H19.8851C20.1409 3.147 20.3864 3.24865 20.5673 3.42958C20.7482 3.61052 20.8499 3.85592 20.8499 4.11181V19.5487C20.8499 19.8045 20.7482 20.05 20.5673 20.2309C20.3864 20.4118 20.1409 20.5135 19.8851 20.5135H4.4482C4.19232 20.5135 3.94692 20.4118 3.76598 20.2309C3.58505 20.05 3.4834 19.8045 3.4834 19.5487V4.11181C3.4834 3.85592 3.58505 3.61052 3.76598 3.42958C3.94692 3.24865 4.19232 3.147 4.4482 3.147Z" fill="black" fill-opacity="0.6"/>
</svg>
