<svg width="24" height="24" viewBox="0 0 24 24" fill="none" xmlns="http://www.w3.org/2000/svg">
<path d="M13.5684 18.5839H18.3924V5.07661H4.88517V18.5839H11.6388V13.7598H9.70919V11.8302H11.6388V10.2344C11.6388 8.94451 11.7739 8.47658 12.0247 8.00479C12.2718 7.53801 12.6538 7.15643 13.1207 6.90974C13.4893 6.71195 13.9476 6.59328 14.7484 6.54215C15.0658 6.52189 15.4768 6.54697 15.9814 6.61933V8.45246H15.498C14.6133 8.45246 14.2476 8.49394 14.0296 8.61068C13.8994 8.6776 13.7936 8.78353 13.7266 8.91363C13.6109 9.13168 13.5684 9.34779 13.5684 10.2335V11.8302H15.9804L15.498 13.7598H13.5684V18.5839ZM3.92037 3.147H19.3572C19.6131 3.147 19.8585 3.24865 20.0394 3.42958C20.2203 3.61052 20.322 3.85592 20.322 4.11181V19.5487C20.322 19.8045 20.2203 20.05 20.0394 20.2309C19.8585 20.4118 19.6131 20.5135 19.3572 20.5135H3.92037C3.66448 20.5135 3.41909 20.4118 3.23815 20.2309C3.05722 20.05 2.95557 19.8045 2.95557 19.5487V4.11181C2.95557 3.85592 3.05722 3.61052 3.23815 3.42958C3.41909 3.24865 3.66448 3.147 3.92037 3.147Z" fill="black" fill-opacity="0.6"/>
</svg>
