<svg width="24" height="24" viewBox="0 0 24 24" fill="none" xmlns="http://www.w3.org/2000/svg">
<path d="M17.6618 14.508L16.2976 13.1438L17.6618 11.7796C18.0202 11.4212 18.3045 10.9958 18.4984 10.5275C18.6924 10.0593 18.7922 9.55746 18.7922 9.05065C18.7922 8.54384 18.6924 8.04199 18.4984 7.57375C18.3045 7.10552 18.0202 6.68007 17.6618 6.32171C17.3035 5.96333 16.878 5.67906 16.4098 5.48511C15.9416 5.29116 15.4397 5.19133 14.9329 5.19133C14.4261 5.19133 13.9243 5.29116 13.4559 5.48511C12.9877 5.67906 12.5623 5.96333 12.2039 6.32171L10.8397 7.68594L9.47547 6.32171L10.8397 4.95747C11.9283 3.88646 13.396 3.28899 14.9231 3.29521C16.4502 3.30143 17.913 3.91083 18.9929 4.99067C20.0727 6.07051 20.6821 7.53331 20.6883 9.06042C20.6946 10.5876 20.0971 12.0552 19.026 13.1438L17.6618 14.508ZM14.9324 17.2375L13.5682 18.6017C13.0322 19.1464 12.3938 19.5797 11.6896 19.8764C10.9854 20.1732 10.2294 20.3275 9.46522 20.3306C8.70107 20.3338 7.94385 20.1855 7.23726 19.8945C6.53068 19.6035 5.88869 19.1756 5.34834 18.6352C4.80799 18.0949 4.37997 17.4529 4.08898 16.7463C3.79799 16.0397 3.64977 15.2825 3.65288 14.5183C3.656 13.7541 3.81037 12.9981 4.10711 12.294C4.40385 11.5898 4.83708 10.9513 5.38181 10.4153L6.74604 9.05113L8.11027 10.4153L6.74604 11.7796C6.38767 12.138 6.10339 12.5634 5.90945 13.0317C5.7155 13.4999 5.61568 14.0017 5.61568 14.5085C5.61568 15.0153 5.7155 15.5172 5.90945 15.9854C6.10339 16.4537 6.38767 16.8791 6.74604 17.2375C7.10442 17.5959 7.52986 17.8801 7.99809 18.074C8.46632 18.2681 8.96817 18.3678 9.47499 18.3678C9.9818 18.3678 10.4837 18.2681 10.9519 18.074C11.4201 17.8801 11.8456 17.5959 12.2039 17.2375L13.5682 15.8732L14.9324 17.2375ZM14.9324 7.68594L16.2976 9.05113L9.47547 15.8723L8.11027 14.508L14.9324 7.68594Z" fill="black" fill-opacity="0.6"/>
</svg>
