<svg width="15" height="15" viewBox="0 0 15 15" fill="none" xmlns="http://www.w3.org/2000/svg">
<g clip-path="url(#clip0_697_2248)">
<path d="M11.3183 5.48494H10.7349V4.31828C10.7349 2.70828 9.42828 1.40161 7.81828 1.40161C6.20828 1.40161 4.90161 2.70828 4.90161 4.31828V5.48494H4.31828C3.67661 5.48494 3.15161 6.00994 3.15161 6.65161V12.4849C3.15161 13.1266 3.67661 13.6516 4.31828 13.6516H11.3183C11.9599 13.6516 12.4849 13.1266 12.4849 12.4849V6.65161C12.4849 6.00994 11.9599 5.48494 11.3183 5.48494ZM7.81828 10.7349C7.17661 10.7349 6.65161 10.2099 6.65161 9.56828C6.65161 8.92661 7.17661 8.40161 7.81828 8.40161C8.45994 8.40161 8.98494 8.92661 8.98494 9.56828C8.98494 10.2099 8.45994 10.7349 7.81828 10.7349ZM9.62661 5.48494H6.00994V4.31828C6.00994 3.32078 6.82078 2.50994 7.81828 2.50994C8.81578 2.50994 9.62661 3.32078 9.62661 4.31828V5.48494Z" fill="white"/>
</g>
<defs>
<clipPath id="clip0_697_2248">
<rect width="14" height="14" fill="white" transform="translate(0.818115 0.818115)"/>
</clipPath>
</defs>
</svg>
